<svg xmlns="http://www.w3.org/2000/svg"
     width="60" height="60" viewBox="0 0 375 375" version="1.2"
     preserveAspectRatio="xMidYMid meet">
  
  <g fill="#000000" stroke="none">
    <g transform="translate(185.750175, 260.913178)">
      <path d="M 22.25 -49.71875 C 15.769531 -41.25 12.53125 -32.09375 12.53125 -22.25
               C 12.53125 -10.53125 17.453125 -1.429688 27.296875 5.046875
               C 33.023438 8.910156 39.535156 10.84375 46.828125 10.84375
               C 54.117188 10.84375 60.441406 9.410156 65.796875 6.546875
               C 75.890625 1.304688 81.5625 -7.476562 82.8125 -19.8125
               C 82.9375 -20.6875 83 -21.5625 83 -22.4375
               C 83 -27.039062 81.71875 -32.019531 79.15625 -37.375
               C 76.601562 -42.738281 72.460938 -47.664062 66.734375 -52.15625
               L 33.078125 -78.6875
               C 25.734375 -84.425781 22.0625 -91.84375 22.0625 -100.9375
               C 22.0625 -110.03125 24.988281 -117.722656 30.84375 -124.015625
               C 36.695312 -130.316406 44.609375 -133.46875 54.578125 -133.46875
               C 59.566406 -133.46875 64.988281 -132.84375 70.84375 -131.59375
               L 78.3125 -131.59375 L 78.6875 -108.609375
               L 76.828125 -108.609375
               C 76.703125 -114.585938 74.550781 -119.289062 70.375 -122.71875
               C 66.195312 -126.144531 60.960938 -127.859375 54.671875 -127.859375
               C 48.378906 -127.859375 43.113281 -125.769531 38.875 -121.59375
               C 34.644531 -117.414062 32.53125 -112.054688 32.53125 -105.515625
               C 32.53125 -98.972656 35.269531 -93.519531 40.75 -89.15625
               L 75.328125 -61.875
               C 89.035156 -51.03125 95.890625 -37.945312 95.890625 -22.625
               C 95.890625 -11.15625 91.34375 -1.304688 82.25 6.921875
               C 74.394531 14.023438 63.925781 17.578125 50.84375 17.578125
               C 42.863281 17.578125 35.757812 16.078125 29.53125 13.078125
               C 17.820312 7.597656 10.78125 -1.742188 8.40625 -14.953125
               C 8.03125 -16.941406 7.84375 -19.460938 7.84375 -22.515625
               C 7.84375 -25.578125 8.710938 -29.753906 10.453125 -35.046875
               C 12.203125 -40.335938 15.570312 -45.664062 20.5625 -51.03125 Z"/>
    </g>

    <g transform="translate(59.804667, 221.994907)">
      <path d="M 199.390625 29.359375
               C 200.117188 29.359375 200.84375 29.359375 201.5625 29.359375
               L 201.5625 31.171875
               C 198.175781 31.660156 194.398438 31.90625 190.234375 31.90625
               C 186.066406 31.90625 180.929688 31 174.828125 29.1875
               C 168.722656 27.375 163.195312 23.988281 158.25 19.03125
               C 148.09375 8.882812 141.925781 -4.285156 139.75 -20.484375
               L 128.703125 -101.140625
               L 91 -15.953125
               C 87.613281 -8.578125 85.554688 -2.414062 84.828125 2.53125
               L 83.015625 2.53125
               L 36.078125 -99.515625
               L 28.09375 -9.421875
               C 27.851562 -7.367188 28.488281 -5.554688 30 -3.984375
               C 31.507812 -2.410156 33.171875 -1.625 34.984375 -1.625
               L 37.890625 -1.625
               L 37.890625 0
               L 2.71875 0
               L 2.71875 -1.8125
               L 5.625 -1.8125
               C 8.882812 -1.8125 11.75 -2.804688 14.21875 -4.796875
               C 16.695312 -6.796875 18.242188 -9.425781 18.859375 -12.6875
               L 30.265625 -111.65625
               C 19.628906 -132.5625 6.882812 -143.015625 -7.96875 -143.015625
               C -9.300781 -143.015625 -10.691406 -142.957031 -12.140625 -142.84375
               L -12.140625 -144.65625
               C -8.878906 -145.5 -6.222656 -145.921875 -4.171875 -145.921875
               C -2.117188 -145.921875 0.113281 -145.828125 2.53125 -145.640625
               C 4.945312 -145.460938 7.785156 -144.890625 11.046875 -143.921875
               C 14.316406 -142.953125 17.398438 -141.53125 20.296875 -139.65625
               C 23.203125 -137.789062 25.738281 -135.859375 27.90625 -133.859375
               C 30.082031 -131.867188 32.140625 -129.664062 34.078125 -127.25
               C 37.335938 -122.894531 39.9375 -118.722656 41.875 -114.734375
               L 85.5625 -20.125
               L 134.3125 -129.421875
               L 135.953125 -129.421875
               L 152.8125 -22.109375
               C 155.34375 -5.191406 160.804688 7.613281 169.203125 16.3125
               C 177.609375 25.007812 187.671875 29.359375 199.390625 29.359375 Z"/>
    </g>
  </g>
</svg>