<?xml version="1.0" encoding="UTF-8"?>
<!DOCTYPE svg PUBLIC "-//W3C//DTD SVG 1.1//EN" "http://www.w3.org/Graphics/SVG/1.1/DTD/svg11.dtd">
<!-- Creator: CorelDRAW X7 -->
<svg xmlns="http://www.w3.org/2000/svg" xml:space="preserve" width="50" version="1.1" style="shape-rendering:geometricPrecision; text-rendering:geometricPrecision; image-rendering:optimizeQuality; fill-rule:evenodd; clip-rule:evenodd"
viewBox="0 0 14800 21000"
 xmlns:xlink="http://www.w3.org/1999/xlink">
 <defs>
  <style type="text/css">
   <![CDATA[
    .fil1 {fill:#2B2A29}
    .fil2 {fill:#2B2A29}
    .fil0 {fill:#FEFEFE}
   ]]>
  </style>
 </defs>
 <g id="Layer_x0020_1">
  <metadata id="CorelCorpID_0Corel-Layer"/>
  <path class="fil0" d="M-13760 69564c251,370 2370,2701 2796,3254 98,128 342,362 395,486 -47,93 -375,462 -458,536 -101,-63 -89,-85 -177,-184 -80,-89 -101,-113 -164,-189l-1035 -1178 -907 1050 1984 2309c107,121 163,225 299,331 295,-292 826,-973 1148,-1315l1153 -1360c-100,-169 -257,-322 -381,-475 -678,-838 -1697,-1906 -2401,-2784 -128,-159 -305,-317 -411,-481l448 -549c93,-98 357,-458 479,-510l904 1059c-55,109 -338,428 -444,521 47,112 806,989 916,1071l1374 -1554c-38,-115 -655,-816 -811,-990l-557 -641c-505,-598 -241,-467 -1347,-467 -247,0 -976,-75 -1130,83l-273 326c-246,305 -1274,1428 -1400,1651z"/>
  <g id="_601053264">
   <g>
    <path class="fil1" d="M9393 6422l15 20 2 11c48,200 124,387 129,596 8,401 -69,759 -324,1078 -37,46 -74,94 -111,140l-39 48 -41 -46c-59,-66 -118,-130 -180,-193l-37 -38 38 -37c23,-22 45,-44 65,-68 139,-162 225,-346 268,-554 161,-782 -358,-1433 -1141,-1510 -214,-20 -432,7 -632,85 -351,137 -603,413 -717,770 -161,505 6,954 341,1341 166,191 363,351 536,534 196,209 400,410 604,611 140,138 282,275 428,406 134,120 297,276 490,265 200,-12 424,-249 564,-380 221,-208 436,-421 649,-636 213,-214 425,-430 632,-649 324,-342 675,-654 1000,-994 10,-12 21,-23 32,-34l89 -93 1 129c15,1186 -17,2372 -17,3558 0,730 54,1463 3,2192l-1 20 -15 14c-34,34 -73,63 -106,96 -51,51 -100,103 -148,156l-91 99 -9 -4948 3 -429c-18,14 -34,28 -43,36 -75,64 -148,131 -220,198 -203,192 -403,389 -600,587 -186,186 -370,374 -552,563 -69,72 -137,143 -205,215 -40,43 -81,87 -119,131 -72,84 -148,163 -230,238 -113,102 -197,191 -203,352 -8,231 201,376 333,539 196,242 378,578 465,878 340,1163 -109,2423 -1218,2975 -307,152 -655,240 -996,265 -384,27 -790,-23 -1142,-183 -202,-92 -390,-196 -564,-335 -168,-134 -315,-292 -459,-452 -218,-243 -456,-920 -471,-1246 -15,-345 -13,-754 103,-1082 38,-109 93,-209 140,-315l31 -70 54 55c9,9 19,18 28,27 55,55 111,109 165,166l24 25 -15 33c-7,16 -14,31 -21,47 -59,140 -107,283 -139,431 -97,453 -33,899 156,1320 266,594 774,998 1403,1157 690,174 1425,24 1966,-445 540,-468 784,-1157 710,-1862 -76,-722 -400,-1092 -909,-1570l-2125 -2103c-87,-86 -176,-170 -262,-258 -86,-88 -186,-196 -248,-304 -36,-64 -63,-134 -90,-204 -43,-115 -85,-231 -128,-347l-3 -7 0 -7c-46,-603 -25,-707 270,-1232l2 -4 3 -4c467,-555 836,-729 1568,-688 318,18 530,159 784,334 112,77 201,159 279,271 69,97 126,205 191,305l7 10zm-5230 1509l-14 505 0 4895 -89 -87c-61,-60 -122,-118 -183,-177 -17,-17 -35,-34 -52,-51l-16 -16 1 -22c0,-37 3,-74 3,-111 17,-1882 -54,-3764 -20,-5645l3 -126 87 90c178,183 360,362 541,541 572,563 1168,1108 1714,1696 173,186 356,362 537,539 266,261 533,522 798,783 280,277 559,554 831,839 100,104 199,210 294,320 44,50 95,105 130,162l2 3 2 4c69,165 103,344 82,523l-23 192 -78 -178c-83,-191 -229,-351 -374,-498 -355,-358 -707,-718 -1076,-1061 -175,-162 -330,-344 -500,-511 -264,-259 -521,-524 -783,-785 -180,-178 -359,-355 -543,-529 -161,-151 -314,-308 -464,-471 -55,-59 -112,-117 -168,-175 -88,-91 -176,-181 -265,-271 -99,-100 -199,-201 -299,-301 -26,-26 -52,-51 -78,-77z"/>
    <path id="1" class="fil1" d="M9421 6496l2 8c22,82 46,161 67,242l1 2c3,12 6,24 9,36l0 1 2 8 0 1c2,6 3,12 5,18l0 0c1,7 3,15 5,22 -16,-70 -35,-139 -55,-208 -16,-57 -33,-115 -47,-173l-2 -11 -15 -20 -7 -10c-28,-43 -55,-88 -81,-132 -36,-59 -71,-118 -110,-173 -10,-15 -21,-29 -31,-43 10,14 21,28 31,43 69,97 126,205 191,305l7 10 15 20 2 11c4,14 7,29 11,43zm115 494l0 1c0,4 0,9 1,14 -1,-13 -2,-25 -4,-38 1,8 2,16 3,23zm2 189l0 0 -1 18 0 0 0 9c1,-11 1,-23 1,-35l0 8zm-1 18l0 18 0 1 -1 8 1 -18 0 0m-2 45l0 1 -1 7 1 -16 0 8zm-1 19l-2 18 0 7 1 -16 1 -16 0 -4m-2 29l-1 18 -2 18 -1 8 2 -17 -1 9m-2 17l-2 18 -1 9c1,-6 2,-12 2,-17l-1 8m-4 36l-3 17 -1 7 2 -14 -1 7m-568 472l1 -1c12,-15 23,-31 33,-46l3 -3c7,-10 13,-20 20,-31l0 0c3,-4 6,-9 9,-13l2 -4c3,-5 6,-9 9,-14l1 -3 4 -6 1 -1c6,-11 12,-21 18,-32l1 -2 3 -6 2 -4 3 -4 1 -3c3,-5 5,-10 8,-15l1 -2 4 -8c2,-5 5,-11 8,-16l1 -2c3,-7 6,-14 9,-21 -4,9 -8,18 -12,26 -44,93 -101,179 -170,260 -10,12 -20,24 -31,35 -11,11 -22,22 -34,33l-38 37 37 37c31,32 61,64 91,96 30,33 59,65 89,98l41 46 39 -48c21,-26 42,-52 62,-79 16,-20 33,-41 49,-61l3 -4 -3 4c-37,46 -74,94 -111,140l-39 48 -41 -46c-59,-66 -118,-130 -180,-193l-37 -38 38 -37c23,-22 45,-44 65,-68 14,-16 28,-33 40,-49zm173 -311l1 -3 2 -6 1 -3m15 -44l0 -1c4,-10 7,-21 10,-32l2 -5 2 -8 1 -6 2 -6c2,-5 3,-10 4,-15l1 -4c2,-5 3,-11 4,-16l2 -6 1 -5c1,-6 3,-13 4,-19l0 -1 2 -8 0 -2 1 -4 0 -1c3,-11 5,-23 7,-34l0 -3c2,-11 4,-22 6,-34l0 -2c2,-11 4,-23 5,-34l0 -2c2,-12 3,-23 4,-35l0 0 1 -5c1,-10 2,-20 3,-30l0 -1c0,-11 1,-22 2,-34l0 -1c-1,22 -3,44 -5,66 -5,49 -12,99 -23,150 -12,59 -27,115 -47,170 4,-10 8,-21 11,-32zm64 -357c0,-10 1,-20 1,-29l0 -2c0,11 -1,22 -1,33l0 -2zm1 -35c0,-10 0,-20 0,-30l0 -2c0,11 0,22 0,34l0 -2zm0 -33c0,-11 0,-22 0,-32l0 -2c0,12 0,23 0,35l0 -1zm0 -37c-1,-9 -1,-19 -2,-29l0 -1c1,11 1,22 2,33l0 -3zm-2 -34c0,-10 -1,-19 -2,-29l0 -2c1,11 2,22 2,33l0 -2zm-2 -33c-1,-10 -2,-20 -3,-31l0 -1c1,11 2,22 3,33l0 -1zm-4 -35c-1,-9 -2,-19 -3,-28l0 -1c1,10 2,21 4,31l-1 -2zm-4 -34c-1,-9 -3,-18 -4,-27l-1 -2c2,10 4,21 5,31l0 -2zm-5 -31c-2,-10 -3,-20 -5,-30l-1 -4c-2,-9 -4,-19 -6,-28l0 -1c5,21 9,42 12,64l0 -1zm-13 -67c-2,-9 -4,-17 -6,-26l-1 -2c3,10 5,20 7,30l0 -2zm-7 -32c-3,-8 -5,-17 -8,-26l-1 -5c-3,-9 -5,-18 -8,-27l0 -2c6,21 12,41 17,62l0 -2zm-19 -63c-2,-9 -5,-17 -8,-26l0 -1c3,9 6,19 9,29l-1 -2zm-9 -30c-3,-9 -6,-17 -10,-26l0 -3c3,10 7,20 10,30l0 -1zm-11 -30c-3,-9 -7,-18 -11,-27l0 -2c4,10 8,20 11,30l0 -1zm-12 -32c-4,-8 -7,-16 -10,-24l-1 -2c4,10 8,19 12,29l-1 -3zm-13 -30c-3,-8 -7,-15 -11,-23l-1 -2c5,9 9,18 13,27l-1 -2zm-13 -28c-4,-8 -8,-17 -12,-26l-1 -1c5,10 9,19 14,29l-1 -2zm-14 -30c-4,-8 -8,-15 -13,-23l0 -2c5,9 9,19 14,28l-1 -3zm-15 -28c-4,-8 -8,-15 -13,-23l-1 -2c5,9 10,18 15,27l-1 -2zm-15 -27c-5,-8 -10,-16 -15,-25l-2 -3c-4,-8 -9,-16 -14,-23l-1 -2c11,18 22,36 33,54l-1 -1zm-34 -55c-5,-8 -10,-15 -14,-22l-2 -2c6,8 12,17 17,26l-1 -2zm-17 -26c-5,-8 -11,-15 -16,-22l-3 -5c-5,-7 -10,-13 -15,-20l-2 -2 -1 -1 3 3c12,16 23,32 35,48l-1 -1zm-38 -52c-6,-8 -11,-15 -17,-22l-3 -3c-5,-7 -11,-14 -17,-21l-3 -3c-6,-7 -13,-14 -19,-22l-1 -1c21,24 42,48 61,74l-1 -2zm-62 -74c-6,-6 -12,-13 -18,-19l-1 -2c7,8 14,15 21,23l-2 -2zm-22 -23c-6,-7 -12,-13 -18,-19l-4 -3c-7,-7 -14,-14 -21,-21l-2 -2c-7,-6 -13,-12 -20,-18l-2 -2c24,21 47,43 68,66l-1 -1zm-70 -67c-6,-6 -13,-12 -19,-17l-2 -2c8,7 15,13 23,20l-2 -1zm-23 -21c-8,-6 -15,-12 -22,-18l-4 -3c-7,-5 -14,-11 -21,-17l-2 -1c17,13 34,27 50,40l-1 -1zm-52 -41c-7,-5 -14,-11 -21,-16l-2 -1c8,6 17,12 25,19l-2 -2zm-25 -18c-8,-6 -15,-11 -23,-17l-4 -2c-8,-6 -16,-11 -24,-16l-1 -1c18,12 36,24 53,36l-1 0zm-55 -38c-8,-5 -15,-9 -23,-14l-2 -1c9,5 18,11 27,17l-2 -2zm-27 -17c-9,-5 -17,-9 -25,-14l-3 -2c-9,-5 -18,-10 -27,-15l-1 0c19,10 38,21 57,32l-1 -1zm-58 -33c-9,-4 -17,-8 -26,-13l-1 -1c10,5 19,10 29,16l-2 -2zm-30 -15c-8,-4 -17,-8 -25,-12l-3 -1c10,4 20,9 30,14l-2 -1zm-29 -14c-9,-4 -19,-9 -28,-13l-1 0c10,4 20,9 30,13l-1 0zm-32 -15c-9,-4 -18,-7 -26,-11l-2 -1c10,5 20,9 30,13l-2 -1zm-31 -13c-9,-3 -17,-7 -26,-10l-2 -1c10,4 20,8 30,12l-2 -1zm-31 -12c-10,-4 -19,-7 -29,-11l-3 -1c-10,-3 -19,-7 -29,-10l-2 0c22,7 43,14 64,22l-1 0zm-65 -23c-9,-3 -19,-6 -28,-9l-2 0c11,3 21,6 32,10l-2 -1zm-33 -10c-10,-3 -20,-6 -30,-9l-2 -1c-11,-2 -21,-5 -32,-8l-1 0c22,5 44,11 66,18l-1 0zm-68 -19c-10,-2 -19,-4 -29,-7l-2 0c11,2 22,5 33,8l-2 -1zm-34 -8c-7,-1 -13,-3 -19,-4l-12 -2 -3 -1c-11,-2 -22,-4 -33,-6l-3 0c-11,-2 -22,-4 -33,-6l-2 0c-11,-1 -22,-3 -34,-4l-2 -1c-11,-1 -23,-2 -34,-3l-1 -1 -15 -1 -1 0c-24,-2 -48,-4 -73,-4 30,1 59,3 89,5 53,6 106,14 157,24 7,2 13,3 20,5l-1 -1zm-475 -25l-1 0c-12,1 -24,3 -36,4l-4 1 -3 1 -4 0 -7 1 -2 1c-6,0 -12,1 -18,2l-4 1 -5 1 -3 1c-14,2 -27,5 -41,8l-1 0 -7 1 -4 1 -2 1 -3 0c-9,2 -18,4 -27,7l-1 0c-10,2 -20,5 -30,8l-4 1c-9,2 -18,5 -27,8l-1 0c-9,3 -18,5 -27,8l-2 1c-4,1 -8,3 -12,4 81,-27 165,-47 250,-58 14,-2 29,-4 43,-5 -6,0 -11,1 -17,2zm-309 72l-2 1c-7,3 -15,6 -22,9l-3 1 -12 5 -4 1 -11 5 -6 2 -11 5 -4 2 -12 5 -4 2 -12 6 -4 1 -11 6 -5 2 -11 6 -4 2 -11 6 -5 2 -10 6 -4 2 -11 6 -5 2 -9 6 -6 3 -11 6 -3 2 -11 7 -3 2m-12 8l-2 1c-4,3 -8,5 -12,8l-3 2 -9 5 -6 5 -9 6 -6 4 -6 5 -6 4 -9 6 -5 4 -9 6 -5 4 -8 7 -5 4 -7 6 -6 4 -9 8 -3 2 -9 8 -5 4 -7 6 -5 5 -9 8 -4 3 -8 8 -3 3 -9 8 -3 3 -9 9 -3 3 -9 9 -3 3 -7 8 -5 4 -7 8 -1 1 -3 3 -8 9 -3 4 -8 8 -4 4 -7 9 -3 4 -7 8 -5 6 -6 7 -4 5 -7 9 -3 4 -6 8 -5 6 -6 9 -3 4 -6 8 -4 6 -7 9 -3 4 -7 10 -3 5 -4 6 -5 8 -6 9 -3 5 -6 10 -2 4 -6 9 -4 7 -4 6 -4 8 -5 8 -1 3c47,-85 104,-163 169,-233 120,-130 270,-232 445,-300 18,-8 37,-14 56,-21 -11,4 -21,8 -32,11m-640 546l-5 10 -3 5 -5 8 -4 8 -5 10 -1 3 -6 10 -2 6 -6 12 -1 2 -6 12 -2 5c-2,4 -4,8 -6,13l0 1m-6 14l-1 2c-2,5 -4,10 -6,14l-1 2 -5 12 -2 6 -4 12 -2 4 -4 10 -2 6 -4 11 -2 6 -4 11 -1 5 -4 12 -1 2 -1 2c-2,7 -4,14 -6,20l-1 4c-2,7 -4,13 -6,20l0 1c4,-15 9,-31 14,-47 27,-84 61,-163 102,-237l-1 3m-116 284c-1,6 -3,12 -5,19l0 1c2,-7 4,-15 6,-23l-1 3zm-6 24c-2,6 -3,12 -5,18l0 2c2,-7 3,-15 5,-23l0 3zm-6 22c-1,7 -3,13 -4,19l-1 2c2,-7 4,-15 6,-23l-1 2zm-5 23c-1,7 -3,13 -4,19l-1 2c2,-7 4,-15 5,-23l0 2zm-5 24c-1,6 -2,12 -4,18l0 2c1,-7 3,-15 4,-22l0 2zm-4 23c-2,5 -3,11 -4,17l0 3c1,-7 2,-15 4,-22l0 2zm-5 23c-1,6 -1,12 -2,17l-1 7c-1,5 -2,11 -3,16l0 4c2,-16 4,-31 7,-46l-1 2zm-6 47c-1,6 -2,12 -2,18l-1 4c-1,6 -1,12 -2,17l0 2c2,-15 3,-29 5,-44l0 3zm-5 46c-1,5 -1,11 -2,17l0 1c1,-7 1,-14 2,-21l0 3zm-2 21c0,6 -1,11 -1,17l0 2c0,-7 1,-14 1,-21l0 2zm-1 23c-1,6 -1,12 -1,17l0 3c0,-7 0,-15 1,-22l0 2zm-1 22c0,5 0,11 -1,17l0 5c0,5 0,11 0,17l0 3c0,-15 0,-30 1,-44l0 2zm-1 44c0,6 0,12 1,18l0 4c0,6 0,12 0,18l0 5c1,6 1,11 1,17l1 6m1 22c1,6 1,11 2,17l0 4c1,6 1,11 2,17l0 2c-2,-14 -3,-29 -4,-43l0 3zm5 43c0,5 1,11 2,16l0 3c-1,-7 -2,-14 -3,-21l1 2zm2 21c1,6 2,11 3,17l0 3c-1,-8 -2,-15 -3,-22l0 2zm3 21c1,6 2,12 3,18l1 3c1,6 2,12 3,18l0 2c-2,-14 -5,-28 -7,-42l0 1zm8 43c1,6 2,12 3,19l1 1c1,7 3,13 4,19l1 4c1,6 3,13 4,19l1 2 2 7 3 12 0 3c2,6 4,12 5,18l1 2c2,5 3,11 5,17l1 4c2,5 4,11 5,16l2 5c2,5 3,11 5,16l1 3c-11,-32 -20,-64 -28,-96 -6,-24 -12,-48 -17,-72l1 1zm45 169c2,5 3,10 5,15l1 3c-2,-7 -5,-13 -7,-20l1 2zm7 21c2,6 4,11 6,16l2 4c2,6 4,11 6,17l0 1c-5,-13 -10,-26 -15,-40l1 2zm16 41c2,6 4,11 6,16l1 2c-3,-7 -5,-13 -8,-19l1 1zm8 21c2,5 5,11 7,16l2 4c2,6 4,11 7,16l2 4c2,6 4,11 7,16l2 5c3,5 5,10 7,15l2 4c3,5 5,10 7,14l4 7 7 13 2 5c3,5 5,10 8,15l3 6 8 14 1 2c-29,-52 -55,-105 -77,-158l1 2zm78 160l8 13 2 3c-4,-6 -7,-12 -11,-18l1 2zm12 21l8 13 3 5 8 14 4 7 9 13 4 6 8 14 4 6 7 11 6 8 7 10 6 9 7 10 7 10 7 9 4 7 9 12 6 8 9 12 2 2c-47,-61 -89,-125 -127,-190l2 4zm130 193l7 10 6 6 9 12 6 8 9 11 6 7 9 11 6 8 10 11 5 6 9 11 3 4c166,191 363,351 536,534 196,209 400,410 604,611 140,138 282,275 428,406 44,40 91,83 141,123 -42,-34 -82,-70 -120,-104l-21 -19c-73,-65 -145,-132 -216,-200 -72,-68 -142,-137 -212,-206 -102,-100 -204,-201 -305,-302 -101,-102 -201,-204 -299,-309 -75,-79 -155,-154 -234,-230 -104,-98 -208,-196 -302,-304 -31,-36 -61,-73 -89,-110l4 5zm1941 1875l0 0 4 2 -6 -3 -1 -1 -6 -3 -3 -1 -6 -3 -2 -1 -5 -3 -3 -2 -5 -3 -3 -1 -4 -3 -3 -2 -5 -2 -3 -3 -4 -2 -3 -2 -6 -4 -1 -1 -6 -3 -2 -2c-25,-16 -50,-34 -73,-53 23,19 48,37 73,53m158 76l1 0m7 2l1 0 1 1 -5 -2 3 1zm8 2l2 0m14 3l2 1m15 2l2 0 2 1 -6 -1 -3 -1m13 2l2 0 3 1 -6 -1 1 0zm34 2l3 0 6 0 2 0 6 0c-6,1 -12,1 -18,0l1 0zm34 -1l0 0 1 0c-3,1 -6,1 -9,1 -3,0 -6,0 -9,0 3,0 6,0 9,0 3,0 5,0 8,-1zm6 0l4 -1 0 0c-2,1 -5,1 -7,1l3 0zm8 -1l5 -1 1 0c-3,0 -5,1 -8,1l2 0zm9 -2l4 0m6 -1l3 -1 2 0 -7 1 2 0zm17 -4l4 -1 4 -1c-3,0 -6,1 -9,2l1 0zm26 -8l1 0 1 0c-7,2 -13,4 -19,5 5,-1 11,-3 17,-5zm6 -2l4 -1 1 -1c-3,1 -6,2 -9,3l4 -1zm36 -14l3 -2 4 -1 -8 3 -2 1m12 -5l4 -2 4 -2c-3,1 -6,3 -9,4l1 0zm9 -5l0 0c6,-3 12,-6 18,-9 -6,4 -12,7 -19,10l1 -1zm24 -12l2 -1 2 -1c-3,2 -6,3 -9,5l5 -3zm17 -9l3 -2 3 -2 -9 5 -1 1m13 -8l3 -1 3 -2c-2,1 -5,3 -8,5l2 -2zm59 -38l2 -2 3 -1c-16,11 -31,21 -47,31 14,-9 28,-18 42,-28zm10 -7l0 0 4 -3 -8 6 4 -3zm8 -6l1 0m7 -6l1 -1c19,-14 38,-29 56,-44l1 0c86,-72 165,-151 227,-209 134,-127 267,-255 398,-385l40 -40c71,-70 141,-141 211,-211 213,-214 425,-430 632,-649 324,-342 675,-654 1000,-994 10,-12 21,-23 32,-34l89 -93 1 129c1,66 2,132 2,198 0,-66 -1,-132 -2,-198l-1 -129 -89 93 -32 34c-159,166 -325,327 -491,487 -172,166 -344,333 -509,507 -104,109 -208,218 -314,326 -105,108 -211,216 -318,323 -106,107 -214,214 -322,321 -108,106 -217,211 -327,315 -16,15 -33,31 -50,48 -68,65 -150,143 -237,208l2 -2zm2692 -2095l0 16c0,34 0,69 0,103l0 1c0,37 0,74 0,111 0,72 0,144 0,217l0 28 0 18 0 21c-1,162 -2,323 -4,484l0 23 0 38 0 26c-1,85 -2,169 -3,254l0 8 -2 213 0 18c-6,514 -12,1028 -12,1543l0 8 0 10c0,31 0,63 1,95l0 15 0 21 0 11c1,140 4,279 8,419 -5,-193 -9,-386 -9,-579 0,-482 5,-963 11,-1444 7,-639 13,-1277 8,-1916 1,79 1,159 2,238zm-5 4012l0 1c3,103 5,205 7,307l0 3 0 32 0 0 1 33 0 5 0 30 0 1 0 27 1 18c0,29 0,58 0,88l0 6 0 27 0 10 0 28 0 3 0 31 0 7c0,30 0,60 -1,90l0 11 0 30 0 2 -1 27 0 9c0,38 -1,75 -2,112 10,-361 1,-723 -8,-1084 -2,-53 -3,-106 -4,-159 2,102 5,203 7,305zm3 992l0 6c-1,22 -2,43 -3,64l0 2 0 12c2,-44 3,-88 4,-132 0,16 0,32 -1,48zm-2441 -2627l-5 5 -4 5 0 0c-7,8 -13,16 -20,24l-1 1 -3 4 -3 5 -1 0 -3 4 -1 2 -3 4c-2,3 -3,5 -5,8l-2 3c-2,3 -4,6 -6,9l-1 2 -3 4 0 0 -2 5 -1 1 -3 4 0 1 -3 5 -3 5 0 1 -2 5 -3 6 -2 4 -1 2 -2 4 -1 1c-2,6 -4,12 -6,17l-2 5 -1 2 -1 4 -1 3 -1 3 -1 3 -1 4 -1 1 -1 5 0 1 -2 5 0 2 -1 5 0 1 -2 5 0 2 -1 4 0 3 -1 5 -1 1 -1 6 0 1 0 2c9,-57 28,-104 56,-147 36,-55 86,-103 142,-154 41,-38 80,-76 119,-115 38,-40 75,-81 111,-123 35,-40 72,-80 109,-119l10 -12c34,-36 68,-72 102,-108 34,-35 68,-71 103,-107 91,-94 182,-188 274,-282 92,-94 185,-188 278,-281 98,-99 198,-198 298,-296 100,-98 200,-195 302,-291 36,-33 73,-67 109,-100 37,-34 74,-66 111,-98l4 -3c9,-8 24,-21 39,-33l0 0c0,0 0,0 0,0l0 0 -3 429 9 4948 91 -99c24,-26 49,-53 73,-79 25,-26 50,-51 75,-77 17,-17 37,-34 56,-50 17,-15 34,-30 50,-46l15 -14 1 -20 1 -11 -1 11 -1 20 -15 14c-34,34 -73,63 -106,96 -51,51 -100,103 -148,156l-91 99 -9 -4948 3 -429c-18,14 -34,28 -43,36 -75,64 -148,131 -220,198 -203,192 -403,389 -600,587 -186,186 -370,374 -552,563 -31,33 -62,65 -93,97 -38,40 -75,79 -112,118 -40,43 -81,87 -119,131 -72,84 -148,163 -230,238 -33,29 -63,58 -89,87zm-112 239l0 0 -1 5 0 6 0 5 -1 6 0 0 0 4 0 2 0 7 0 1c0,-3 0,-7 0,-10 1,-10 1,-20 2,-30l0 4zm-2 39l0 5 0 2c0,-3 0,-6 0,-9l0 2zm0 10l0 6 1 5 0 7 0 1c0,-7 -1,-14 -1,-20l0 1zm1 22l1 5 0 2c0,-3 0,-6 -1,-9l0 2zm1 9l1 5c0,3 1,6 1,9l1 3 0 2c-1,-7 -2,-13 -3,-20l0 1zm4 22l0 4 1 2c-1,-3 -1,-6 -2,-9l1 3zm1 9l1 3 1 5m2 8l1 5 1 3 1 2c-3,-9 -5,-18 -7,-28l0 2m8 30l0 2c2,6 4,12 6,18l1 3 1 2c-3,-9 -6,-18 -9,-28l1 3zm9 28l1 3 2 5 1 2c2,4 3,7 5,11l0 1 1 2c-4,-9 -8,-18 -11,-27l1 3zm12 28l1 2 1 3 -4 -8 2 3zm13 27l1 2 2 3c-5,-9 -9,-17 -13,-26 3,7 6,14 10,21zm4 7l1 2c3,4 5,9 8,13 -3,-5 -7,-11 -10,-17l1 2zm51 77l0 0c5,6 9,12 14,18l0 0c64,80 143,152 206,228 -30,-36 -63,-70 -96,-105 -51,-54 -103,-109 -144,-169 6,10 13,19 20,28zm736 1296l1 4 0 1 -1 -8 0 3zm12 56l1 3 0 1 -1 -7 0 3zm11 54l1 4 0 1 -2 -8 1 3zm10 55l0 4 1 2 -2 -9 1 3zm8 55l1 5 0 1 -1 -9 0 3zm7 54l1 6 0 2 -1 -10 0 2zm7 56l0 5 0 2 0 -9 0 2zm5 55l0 6 1 1 -1 -9 0 2zm4 54l0 7 0 2 0 -11 0 2zm3 56l0 6 0 2 0 -10 0 2zm2 54l0 7 0 2 0 -11 0 2zm0 55l0 7 0 2 0 -11 0 2zm0 55l0 7 0 2 0 -10 0 1zm-2 55l0 6 0 3 0 -11 0 2zm-2 55l-1 5 0 2 1 -9 0 2zm-4 54l-1 5 0 3 1 -9 0 1zm-5 54l-1 6 0 2 1 -10 0 2zm-6 55l-1 3 0 3 1 -8 0 2zm-7 54l-1 2 0 3 1 -7 0 2zm-9 53l0 3 -1 3 2 -8 -1 2zm-9 53l0 2 -1 3 1 -6 0 1zm-10 54l-1 0 0 3 1 -5 0 2zm-24 104l-1 1 -1 3 2 -8 0 4zm-14 52l0 0 -1 2 2 -5 -1 3zm-15 51l0 1 0 1 1 -5 -1 3zm-15 50l-1 3 -1 1 3 -7 -1 3zm-17 50l-1 3 0 1 2 -6 -1 2zm-18 51l-1 3 0 1 2 -7 -1 3zm-19 50l-1 3 -1 1 3 -7 -1 3zm-20 49l-1 3 -1 1 3 -6 -1 2zm-21 49l-1 3 -1 1 3 -6 -1 2zm-22 49l-1 2 -1 1 3 -5 -1 2zm-24 48l0 2 -1 1 2 -5 -1 2zm-24 48l-1 1 0 1 2 -5 -1 3zm-108 184l0 1 -2 2 3 -3 -1 0zm-29 45l-2 2 -1 1 3 -4 0 1zm-30 43l-3 3 -1 2 4 -6 0 1zm-32 44l-2 2 -1 2 4 -6 -1 2zm-32 42l-3 3 -1 2 4 -6 0 1zm-34 42l-2 3 -1 1 4 -5 -1 1zm-34 41l-3 3 -1 1 5 -5 -1 1zm-36 40l-2 3 -2 2 5 -6 -1 1zm-36 40l-4 3 -1 1 6 -5 -1 1zm-38 39l-3 3 -2 1 6 -6 -1 2zm-38 38l-4 3 -1 1 6 -5 -1 1zm-40 37l-4 4 -1 0 6 -5 -1 1zm-41 37l-3 3 -1 1 5 -5 -1 1zm-41 35l-4 4 -1 0 6 -4 -1 0zm-43 35l-3 3 -1 1 6 -5 -2 1zm-43 34l-4 3 -1 1 6 -5 -1 1zm-46 34l-2 2 -1 1 5 -4 -2 1zm-45 32l-3 2 -1 1 6 -4 -2 1zm-47 32l-2 1 -1 1 5 -4 -2 2zm-47 30l-3 2 -1 0 5 -3 -1 1zm-50 30l-1 1 -1 0 5 -3 -3 2zm-49 29l-1 0 -2 1 5 -3 -2 2zm-235 114l0 0c-15,7 -29,13 -44,18l-2 1 -14 6 0 0 -10 4c31,-12 63,-25 93,-39 -7,4 -15,7 -23,10zm-321 112l-2 0c-15,4 -30,8 -46,12l-1 0c-17,5 -35,9 -52,13 26,-6 52,-12 78,-19 10,-3 20,-6 30,-8l-7 2zm-158 38l-2 0c-10,3 -20,5 -30,7l-2 0c-10,2 -20,4 -30,6l-1 0 -16 3 0 0c-8,2 -17,3 -25,5 53,-10 106,-20 159,-33 -18,4 -35,8 -53,12zm-421 57l0 0 -10 1 17 -1 -7 0zm-54 3l-1 0 -11 0c18,0 36,-1 54,-2 -14,1 -28,1 -42,2zm-91 2l-2 0 -16 0 -2 0 -17 0 -1 0c-17,0 -35,-1 -52,-1l-2 0c-10,0 -19,-1 -29,-1 50,2 100,2 150,2 -10,0 -19,0 -29,0zm-144 -3l-5 0 -16 -1 0 0 -17 -1 -3 0 -15 -1 -3 0 -16 -2 -2 0 -15 -1 -4 0c-7,-1 -15,-2 -22,-2 47,4 94,7 141,9 -8,0 -15,-1 -23,-1zm-130 -9l-1 -1 -6 0 16 1 -9 0zm-55 -6l-1 -1 -8 -1c11,2 23,3 35,5 -8,-1 -17,-2 -26,-3zm-515 -124l0 0 -4 -1 8 3 -4 -2zm-50 -19l-1 -1 -4 -1 9 3 -4 -1zm-1283 -1126l0 -1 -2 -3 5 8 -3 -4zm-193 -507l0 0 -1 -5c3,12 6,23 10,34 -3,-10 -6,-20 -9,-29zm-6 -23l-1 0 -6 -22 0 0 -1 -5 3 11 1 5 5 16 -1 -5zm-57 -1144l0 -1 1 -8 -2 16 1 -7zm210 -635l1 0c3,-8 7,-16 10,-24l31 -70 54 55 6 6 -6 -6 -54 -55 -31 70c-16,36 -33,72 -50,107l-8 17c16,-33 32,-66 47,-100zm294 221l0 0 -2 3 0 1 -2 5 -1 2 -1 3m-7 14l-2 6 -1 1 -1 3c-6,13 -11,26 -16,39 5,-13 10,-26 16,-39 2,-5 5,-11 7,-16l3 -8c3,-6 7,-13 10,-20l-3 6m-64 157l-2 4c-3,7 -5,15 -8,22l-2 7 -6 17 -1 3 -5 13 -3 11 -2 3 -2 7 -2 6 -3 10 -3 11c2,-7 4,-14 6,-21 19,-58 40,-116 64,-173 -11,27 -21,53 -31,80zm-78 250l-2 10 -1 4 -1 3c-4,15 -7,30 -10,45l-1 3 -3 17 -1 4 -3 15 -2 8c-1,5 -2,10 -3,16l0 5 -2 11 -1 6c4,-28 10,-56 16,-85 9,-41 19,-82 30,-123 -5,20 -11,41 -16,61zm-31 152l-3 14 -1 7 -1 9 -1 7c2,-14 4,-28 7,-42l-1 5zm-7 43l-1 9 -1 6c1,-7 2,-13 3,-20l-1 5zm-3 22l-1 5 -1 9c1,-6 2,-12 3,-19l-1 5zm-3 19l-1 13 -1 3c1,-6 2,-13 3,-20l-1 4zm-2 22l-1 8 -1 7c1,-6 2,-13 2,-20l0 5zm-2 21l-2 12 0 8 -2 13 0 3c1,-13 3,-27 4,-40l0 4zm-4 42l-1 11 0 4c0,-6 0,-13 1,-19l0 4zm-2 21l-1 11 0 5c0,-7 1,-13 1,-20l0 4zm-1 20l-1 7 0 8c0,-6 1,-12 1,-18l0 3zm-2 25l0 8 0 9 -1 12 0 4c0,-13 1,-26 2,-39l-1 6zm-1 41l0 9 -1 5c1,-7 1,-13 1,-20l0 6zm-1 25l0 3 0 5c0,-6 0,-12 0,-18l0 10zm0 19l0 6 0 6c0,-7 0,-13 0,-19l0 7zm0 21l0 5 0 6c0,-7 0,-13 0,-19l0 8zm0 22l0 4 1 12 0 11 0 10 1 10 0 11 1 10 0 12 1 9 0 10 1 11 1 10 1 11 1 11 0 8 1 13 1 9 1 10 2 14 1 6 0 4 1 12 1 4 2 16 1 5 2 16 1 4 2 15 1 7 2 15 1 4 3 17 0 3 3 14 2 9 2 14 1 4 3 16 1 5 4 17 0 2 4 16 1 5c1,6 3,12 4,18l1 2 4 16 1 6 3 13 3 9 3 12 1 7 4 13 2 7 4 15 2 5 4 14 2 7 4 14 2 6 4 15 2 5 5 15 2 5 5 16 2 5 4 12 1 4c-52,-151 -89,-305 -107,-461 -8,-71 -13,-143 -14,-215l0 9zm123 673l3 9m4 11l4 9 3 10 5 13 3 7 4 12 4 9 4 9 3 10 5 11 4 10 3 8 5 10 5 13 3 7 6 13 3 7 4 11 3 5 1 2c3,8 7,15 10,23l2 5c4,7 8,15 11,23l1 2c-9,-19 -17,-37 -25,-55 -27,-59 -51,-119 -72,-179l1 5zm98 232c3,7 7,15 11,22l2 4c4,8 8,16 12,24l1 2c4,8 8,16 13,24l2 4c4,8 8,15 12,22l1 2c-20,-35 -38,-71 -55,-107l1 3zm56 107c4,7 8,14 12,21l1 2c-5,-9 -10,-17 -15,-26l2 3zm14 25c4,8 9,15 13,22l2 4c4,7 8,13 12,20l2 3c-10,-17 -20,-34 -30,-51l1 2zm32 54c4,6 8,12 11,18l2 2c-6,-8 -11,-17 -16,-25l3 5zm15 24c4,6 8,12 12,19l4 5c4,7 9,13 13,19l4 6c4,6 8,13 13,19l1 1c-17,-23 -33,-48 -49,-72l2 3zm49 73c5,6 9,12 13,18l2 2c-6,-7 -11,-15 -17,-23l2 3zm18 24c4,6 8,12 12,18l2 2c-5,-7 -11,-15 -16,-22l2 2zm17 24c4,6 9,12 13,17l2 2c-6,-7 -12,-15 -18,-22l3 3zm17 23c5,6 10,12 14,18l2 2c-6,-8 -12,-15 -18,-23l2 3zm18 23c5,6 9,11 14,17l2 2c-6,-7 -12,-15 -18,-22l2 3zm19 24c5,5 9,11 14,16l5 5c4,6 9,12 14,18l4 4c5,5 9,11 14,17l3 2c-20,-22 -38,-43 -56,-66l2 4zm56 65c5,6 10,11 15,16l5 6c5,5 9,10 14,15l6 6c5,6 10,11 15,16l4 4c6,6 11,11 16,16l2 3c-27,-28 -53,-56 -79,-84l2 2zm80 84c5,5 10,10 15,15l3 3c-7,-7 -14,-14 -21,-20l3 2zm21 21c5,5 10,10 15,15l3 2c-7,-7 -14,-13 -21,-20l3 3zm20 19c5,5 11,10 16,15l6 5c5,5 10,10 15,14l3 3c-14,-13 -28,-26 -42,-39l2 2zm43 40c6,4 11,9 16,14l6 5c5,4 10,8 15,13l4 3c-15,-12 -29,-25 -43,-38l2 3zm44 37l12 11 4 3 6 4c6,5 11,10 17,14l6 5c5,4 11,9 17,13l5 4c6,5 12,9 18,13l6 5c6,4 12,9 17,13l6 4c6,4 12,9 18,13l5 4c6,4 12,8 18,12l3 2c-50,-34 -99,-71 -146,-109 -5,-4 -10,-9 -15,-13l3 2zm162 123c6,4 12,8 18,12l5 3c6,4 12,8 19,12l2 2c-16,-10 -31,-21 -47,-31l3 2zm48 32c6,4 12,7 18,11l3 2c-8,-5 -15,-10 -23,-15l2 2zm25 15c6,4 12,8 18,11l3 2c-8,-5 -16,-10 -24,-15l3 2zm25 15c6,4 12,8 19,12l5 3c7,4 13,7 20,11l6 4c6,3 13,7 19,10l2 2c-25,-14 -50,-29 -74,-43l3 1zm76 44c6,3 12,7 18,10l4 2c-9,-5 -17,-9 -25,-14l3 2zm26 14c6,3 13,7 19,10l3 1c-9,-4 -17,-9 -26,-13l4 2zm26 13c6,4 13,7 20,10l2 1c-9,-4 -17,-8 -26,-13l4 2zm25 13c7,4 14,7 21,10l2 1c-9,-4 -17,-8 -26,-12l3 1zm27 13c7,3 14,7 21,10l1 1c-8,-4 -16,-8 -25,-12l3 1zm27 13c7,3 13,6 20,9l6 3c7,3 14,6 21,9l7 3c7,3 14,6 21,9l2 0c-27,-11 -54,-23 -80,-35l3 2zm80 35c8,3 15,6 23,9l1 0c-9,-3 -18,-7 -27,-11l3 2zm28 11c7,3 15,6 22,8l6 3c8,3 15,5 22,8l2 1c-19,-7 -37,-14 -55,-21l3 1zm56 21c8,3 15,6 23,8l4 2c8,3 16,5 24,8l1 1c-18,-7 -37,-13 -55,-20l3 1zm56 20c8,2 16,5 24,8l3 1c8,2 16,5 24,7l6 2c7,2 15,5 22,7l7 2c8,2 16,5 24,7l3 1m27 7l1 0c9,2 17,5 26,7l3 1 2 0c10,3 19,5 29,7l2 1c10,2 19,4 28,6l6 1c9,2 18,4 27,6l5 1c9,2 18,4 27,6l5 1c9,1 18,3 28,5l5 1c9,1 18,3 27,4l5 1c10,2 19,3 28,5l5 0c9,2 18,3 27,4l4 1c-87,-12 -174,-29 -260,-50 -59,-15 -117,-32 -173,-51l3 1m433 100c8,1 17,2 25,3l4 1c-10,-2 -21,-3 -31,-4l2 0zm32 4c9,1 17,2 26,3l3 0c-10,-1 -20,-2 -31,-3l2 0zm33 4c9,1 17,1 25,2l3 1c-10,-1 -20,-2 -30,-3l2 0zm34 3c8,1 16,1 24,2l4 0c-10,0 -20,-1 -30,-2l2 0zm32 3c8,0 16,1 24,1l4 1c-10,-1 -20,-2 -30,-3l2 1zm34 2c8,0 15,1 23,1l4 0c-10,0 -20,-1 -30,-1l3 0zm33 2c7,0 15,0 23,1l3 0c-9,-1 -19,-1 -29,-2l3 1zm32 1c8,0 15,0 23,0l3 0c-9,0 -19,0 -28,0l2 0zm33 1c8,0 16,0 24,0l2 0c-9,0 -19,0 -28,0l2 0zm33 0c8,0 16,0 23,0l3 0c-9,0 -19,0 -28,0l2 0zm33 0c8,0 15,-1 23,-1l3 0c-10,0 -19,1 -29,1l3 0zm33 -1c7,0 15,0 23,-1l2 0c-9,1 -19,1 -28,1l3 0zm32 -1c8,0 16,-1 24,-1l3 0c-10,0 -20,1 -29,1l2 0zm32 -2c8,0 16,-1 24,-1l3 0c-10,0 -20,1 -30,2l3 -1zm33 -2c8,0 16,-1 24,-2l2 0c-9,1 -19,2 -29,2l3 0zm33 -2c8,-1 15,-2 23,-2l3 -1c-10,1 -19,2 -29,3l3 0zm32 -3c8,-1 16,-2 23,-3l3 0c-10,1 -19,2 -29,3l3 0zm33 -4c8,-1 16,-2 24,-3l2 0c-10,1 -20,2 -29,4l3 -1zm32 -4c8,-1 16,-2 24,-3l2 0c-10,1 -20,2 -30,4l4 -1zm31 -4c9,-1 17,-3 25,-4l3 0c-10,1 -21,3 -31,4l3 0zm32 -5c9,-1 17,-3 25,-4l2 0c-10,1 -20,3 -30,5l3 -1zm33 -5c8,-2 16,-3 24,-5l2 0c-10,2 -20,3 -29,5l3 0zm33 -6c7,-2 15,-4 23,-5l2 -1c-9,2 -19,4 -29,6l4 0zm31 -7c8,-1 16,-3 24,-5l2 0c-10,2 -20,4 -30,6l4 -1zm31 -6l8 -2 18 -4 1 -1 -19 5 -11 2 3 0zm30 -7c9,-2 17,-4 26,-7l2 0c-10,2 -20,5 -30,7l2 0zm33 -8c8,-2 16,-5 25,-7l2 0c-11,2 -21,5 -31,8l4 -1zm31 -8c8,-3 17,-5 25,-7l1 -1c-9,3 -19,6 -29,8l3 0zm30 -9c9,-2 17,-5 25,-7l2 -1c-9,3 -19,6 -28,9l1 -1zm32 -9c9,-3 17,-5 25,-8l2 0c-10,3 -19,6 -29,8l2 0zm31 -10c8,-2 16,-5 25,-8l2 -1c-10,4 -20,7 -29,10l2 -1zm30 -10c8,-2 17,-5 25,-8l2 -1c-10,4 -20,7 -29,10l2 -1zm32 -10c8,-3 16,-6 24,-9l1 -1c-9,4 -18,7 -27,10l2 0zm30 -11c8,-3 16,-6 24,-9l1 -1c-9,4 -18,7 -27,10l2 0zm30 -12c8,-3 16,-6 25,-9l1 -1c-9,4 -18,7 -28,11l2 -1zm30 -12c8,-3 16,-6 24,-10l3 -1c-10,4 -19,8 -29,12l2 -1zm30 -12c8,-3 16,-7 24,-10l2 -1c-9,4 -19,8 -28,12l2 -1zm29 -13c8,-3 16,-7 24,-10l2 -1c-9,4 -18,8 -27,12l1 -1zm31 -13c7,-4 15,-7 23,-11l2 -1c-9,4 -18,8 -27,12l2 0zm29 -14c8,-4 15,-7 23,-11l3 -2c-9,5 -18,9 -28,14l2 -1zm30 -15c7,-3 15,-7 23,-11l2 -1c-10,5 -19,9 -28,14l3 -2zm28 -14c8,-4 16,-8 24,-13l3 -1c-10,5 -19,10 -29,15l2 -1zm28 -15c8,-4 16,-8 24,-12l3 -2c-10,5 -19,10 -28,15l1 -1zm30 -16c7,-4 15,-8 23,-13l2 -1c-9,5 -18,10 -27,15l2 -1zm28 -16c7,-4 15,-8 22,-13l3 -2c-9,6 -18,11 -27,16l2 -1zm29 -17c7,-4 14,-8 21,-13l4 -2c-9,5 -18,11 -27,16l2 -1zm27 -17c7,-4 15,-9 22,-13l3 -2c-9,5 -18,11 -27,17l2 -2zm29 -18c7,-4 14,-9 21,-13l3 -3c-9,6 -18,12 -27,18l3 -2zm26 -17c7,-5 14,-9 21,-14l4 -3c-8,6 -17,12 -26,18l1 -1zm28 -19c7,-5 14,-10 21,-15l6 -4c7,-5 14,-10 21,-15l4 -3c-18,13 -36,26 -54,39l2 -2zm55 -39c6,-5 13,-10 20,-15l6 -5c7,-5 13,-10 20,-15l7 -5c7,-6 14,-11 21,-17l3 -2c7,-7 15,-13 22,-19l5 -4c7,-6 14,-12 21,-18l2 -2 3 -2c6,-6 13,-11 19,-17l7 -6c6,-6 12,-11 19,-17l5 -5c6,-6 12,-12 18,-17l6 -6c7,-6 13,-13 20,-19l4 -4c6,-6 13,-13 19,-19l1 -1c-38,39 -79,77 -121,113 -42,37 -86,72 -130,104l3 -2zm251 -218c6,-7 12,-13 19,-19l4 -5c6,-7 12,-13 18,-20l4 -4c6,-6 12,-13 18,-20l4 -4c6,-7 12,-13 18,-20l1 -1c-28,32 -58,64 -89,95l3 -2zm89 -97c6,-6 11,-13 17,-19l1 -2c-6,8 -13,16 -20,24l2 -3zm21 -25c6,-6 11,-13 16,-19l2 -2c-7,8 -14,16 -20,24l2 -3zm21 -25c5,-7 10,-13 15,-19l2 -3c-6,9 -13,17 -19,25l2 -3zm21 -26c5,-6 9,-12 14,-19l2 -2c-6,8 -13,16 -19,24l3 -3zm19 -25c5,-7 10,-13 15,-20l1 -2c-6,8 -12,16 -18,25l2 -3zm19 -26c5,-7 10,-13 15,-20l1 -1c-6,8 -12,16 -18,24l2 -3zm20 -27c4,-6 9,-13 13,-19l2 -2c-6,8 -11,16 -17,24l2 -3zm17 -25c5,-7 9,-13 14,-20l2 -3c-6,9 -11,17 -17,25l1 -2zm19 -28c4,-6 9,-13 13,-19l1 -3c-5,9 -10,17 -16,25l2 -3zm17 -26c5,-7 9,-14 13,-21l1 -1c-5,8 -10,16 -15,25l1 -3zm17 -27c4,-7 9,-14 13,-21l1 -2c-5,8 -10,17 -15,25l1 -2zm17 -28c4,-6 8,-13 12,-20l2 -3c-5,9 -10,17 -15,26l1 -3zm16 -26c4,-7 8,-15 12,-22l2 -2c-5,8 -10,17 -15,25l1 -1zm16 -29c4,-7 8,-14 12,-21l1 -3c-4,9 -9,18 -14,27l1 -3zm15 -27c4,-7 8,-15 12,-23l1 -2c-4,9 -9,18 -14,27l1 -2zm15 -28c4,-8 8,-15 11,-22l2 -3c-5,9 -9,18 -14,27l1 -2zm15 -29c3,-7 6,-14 10,-21l1 -3c-4,9 -8,17 -12,26l1 -2zm14 -29c3,-7 7,-14 10,-21l1 -4c-4,9 -8,18 -12,27l1 -2zm13 -29c4,-7 7,-15 11,-22l1 -3c-4,9 -8,18 -13,28l1 -3zm13 -28c4,-8 7,-15 10,-23l1 -2c-4,9 -8,18 -12,27l1 -2zm13 -29c3,-8 6,-16 10,-24l1 -3c-4,9 -8,18 -12,28l1 -1zm12 -30c3,-7 6,-15 10,-23l1 -4c-4,10 -8,20 -12,29l1 -2zm12 -29l6 -16 3 -8 1 -3 -4 11 -7 18 1 -2zm11 -30c3,-8 6,-16 9,-24l1 -3c-3,9 -7,19 -10,28l0 -1zm11 -30c3,-8 6,-16 9,-25l1 -3c-3,10 -7,20 -10,30l0 -2zm11 -30c2,-8 5,-16 7,-24l2 -3c-4,10 -7,19 -10,29l1 -2zm10 -31c2,-8 5,-16 7,-24l1 -3c-3,9 -6,19 -9,29l1 -2zm9 -30c3,-8 5,-16 7,-24l1 -3c-3,10 -5,19 -8,29l0 -2zm10 -32c2,-8 4,-15 6,-23l1 -3c-2,9 -5,19 -8,28l1 -2zm8 -30c2,-8 4,-16 6,-23l1 -3c-2,9 -5,19 -7,28l0 -2zm9 -32c2,-8 3,-15 5,-22l1 -4c-2,10 -4,19 -7,28l1 -2zm7 -31c2,-8 4,-16 6,-24l1 -3c-3,10 -5,20 -7,29l0 -2zm8 -31c1,-7 3,-15 5,-23l0 -3c-2,10 -4,19 -6,29l1 -3zm7 -32c1,-8 3,-16 4,-23l1 -3c-2,10 -4,19 -6,28l1 -2zm6 -32c1,-7 3,-14 4,-22l1 -2c-2,9 -4,18 -5,27l0 -3zm6 -32c1,-8 3,-15 4,-23l0 -2c-1,9 -3,18 -4,27l0 -2zm5 -31c2,-7 3,-15 4,-23l0 -2c-1,9 -3,19 -4,28l0 -3zm6 -33c1,-8 2,-15 3,-22l0 -3c-1,9 -2,18 -4,28l1 -3zm4 -31c1,-8 2,-15 3,-23l0 -3c-1,10 -2,19 -3,29l0 -3zm4 -33c1,-7 2,-15 3,-22l0 -2c-1,9 -2,18 -3,27l0 -3zm4 -33c1,-7 1,-14 2,-21l0 -3c-1,9 -2,18 -3,28l1 -4zm3 -32c1,-8 1,-15 2,-22l0 -2c-1,9 -1,18 -2,27l0 -3zm3 -32c0,-8 1,-15 1,-23l0 -2c0,9 -1,19 -2,28l1 -3zm2 -32c0,-8 1,-15 1,-23l0 -2c0,9 -1,19 -1,28l0 -3zm2 -33c0,-8 0,-16 1,-24l0 -2c-1,10 -1,20 -2,30l1 -4zm1 -31c0,-9 0,-17 1,-25l0 -3c-1,11 -1,21 -1,31l0 -3zm1 -34c0,-7 0,-15 0,-23l0 -3c0,10 0,20 0,30l0 -4zm0 -33c0,-8 0,-16 0,-24l0 -2c0,10 0,20 0,30l0 -4zm0 -32c0,-9 0,-17 0,-25l0 -2c0,10 0,20 0,31l0 -4zm0 -33c-1,-8 -1,-17 -1,-25l0 -2c0,10 0,21 1,32l0 -5zm-1 -33c-1,-8 -1,-16 -2,-25l0 -7c0,-9 -1,-17 -1,-26l-1 -6c0,-10 -1,-19 -2,-28l0 -4c-1,-9 -2,-19 -2,-28l-1 -6c-1,-8 -2,-17 -3,-26l0 -3 0 -4c-1,-9 -2,-18 -3,-26l-1 -7c-1,-10 -2,-20 -4,-30l0 0c-1,-11 -3,-22 -4,-33 -2,-9 -3,-19 -5,-29l-1 -6c-1,-9 -3,-19 -4,-28l0 -1c-2,-9 -4,-18 -5,-27l-1 -7c-2,-8 -4,-17 -5,-26l-1 -2c-2,-10 -4,-19 -6,-29l0 -1c-2,-10 -4,-19 -6,-29l-1 -1c-2,-9 -4,-19 -6,-28l-1 -1c-2,-10 -4,-19 -7,-28l0 -1c-2,-10 -5,-19 -7,-28l-1 -1c-2,-8 -4,-16 -6,-24l-2 -6c-3,-8 -5,-17 -7,-25l-1 -1c-3,-9 -5,-17 -8,-26l-1 -2c-2,-7 -5,-15 -7,-22l-3 -8c-2,-7 -5,-14 -7,-22l-1 -2c-3,-8 -6,-16 -9,-23l-1 -4c-3,-8 -6,-15 -9,-23l-1 -2c-3,-7 -6,-14 -8,-21l-4 -8c-2,-6 -5,-13 -8,-19l-1 -4c-3,-7 -6,-14 -9,-21l-3 -6c-3,-6 -6,-12 -8,-18l-2 -4c88,190 148,404 175,664 6,55 10,110 12,164l0 -5zm-189 -826c-3,-7 -6,-13 -9,-20l-1 -2c-4,-7 -7,-14 -11,-21l-2 -5c-3,-7 -7,-14 -11,-20l-1 -3c-3,-6 -7,-13 -10,-20l-4 -6c-3,-5 -6,-11 -9,-17l-4 -6c-3,-6 -6,-11 -9,-17l-5 -8c-2,-5 -5,-10 -8,-15l-5 -8c-3,-5 -7,-10 -10,-16l-4 -6 -10 -16 -2 -3 -2 -4c-4,-5 -7,-11 -11,-16l-4 -7 -10 -14 -6 -9 -9 -14 -5 -8 -11 -14 -5 -8 -10 -14 -6 -8 -10 -13 -7 -10 -10 -13 -6 -7 -11 -15 -5 -7c-5,-5 -9,-11 -13,-16l-3 -4 -13 -16 -7 -8 -10 -12 -7 -9 -11 -13 -8 -9 -9 -11 -10 -12 -9 -10 -9 -10 -10 -11 -9 -10 -12 -14 -6 -6 -12 -12 -11 -12 -7 -8 -13 -14 -7 -7 -13 -14 -7 -7 -16 -18 -1 0c-14,-14 -28,-28 -42,-42l0 -1 -17 -17 -8 -7 -14 -15 -7 -7c-28,-27 -55,-54 -84,-81l-4 -4c-26,-25 -53,-50 -80,-76l-2125 -2103c-87,-86 -176,-170 -262,-258 -83,-85 -178,-188 -240,-291 30,50 67,99 107,146 43,52 90,101 133,145 54,56 109,109 164,163 33,31 66,63 98,95l2125 2103c255,239 463,451 617,694 43,68 82,138 117,212l-2 -3zm-3532 -3976l-1 -1c-17,-47 -34,-95 -52,-142l-3 -7 0 -7c-2,-29 -4,-56 -6,-82 -1,-17 -2,-34 -4,-51l-1 -24c-1,-12 -1,-24 -2,-35 3,58 8,122 13,192l0 7 3 7c18,49 36,98 54,147 25,67 49,134 74,200 5,12 9,24 14,36 -5,-12 -9,-24 -14,-36 -25,-68 -50,-136 -75,-204zm-72 -407l-1 -21 0 -1c0,-9 0,-19 -1,-28 1,12 1,25 2,38l0 3c1,21 2,42 3,65 -1,-19 -2,-38 -3,-56zm-2 -84l0 0 0 -6 0 15 0 3 0 9 0 8 0 -17m1456 -1603l0 0 5 0 -10 1 5 -1zm726 65l12 4 4 2c-7,-3 -14,-6 -21,-8l5 2zm1059 1264c3,15 6,30 9,45 -3,-15 -6,-30 -9,-45zm9 47c1,8 3,17 4,25 -1,-8 -3,-17 -4,-25zm5 28c2,16 5,33 6,50 -1,-17 -4,-34 -6,-50zm12 136l1 4 0 6 0 -6 -1 -4zm-10 288l-1 8m-3 27l-1 9 -1 8c1,-6 2,-11 2,-17zm-2 19l-1 8m-4 28l-1 7 -1 8 2 -15zm-3 16l-1 8 -1 8 2 -16zm-6 38l-1 5 -2 8 3 -13zm-3 14c-1,6 -2,11 -3,16 1,-5 2,-10 3,-16zm-66 240l-1 4 -2 4 3 -8zm-32 81l-2 4 -3 5 5 -9zm-23 48l-2 4 -1 4 3 -8zm-292 -213c4,-8 8,-17 12,-26 -4,9 -8,18 -12,26zm12 -26c5,-12 10,-24 14,-36 -4,12 -9,24 -14,36zm14 -36c2,-4 3,-8 5,-12m-1187 -1710c-6,0 -12,0 -17,0 5,0 11,0 17,0zm-22 0c-5,0 -11,0 -17,0 6,0 12,0 17,0zm-39 0c-6,0 -12,0 -19,0 7,0 13,0 19,0zm-70 3c-6,0 -12,1 -18,1 6,0 12,-1 18,-1zm-20 1c-10,1 -20,2 -29,3 9,-1 19,-2 29,-3zm-1159 1248l0 1m4 85l0 1c-2,-29 -4,-58 -4,-87m2341 2752l3 1m14 3l2 1m15 3l1 0m115 3l1 -1m237 -114l3 -2m2688 3128c-1,11 -2,22 -2,32l2 -32zm-2478 -2358c6,9 11,17 17,25 -6,-8 -11,-16 -17,-25zm262 305l4 5c14,17 27,35 41,53 -14,-18 -27,-36 -41,-53l-4 -5zm45 58c6,8 12,16 18,24 -6,-8 -12,-16 -18,-24zm28 38c12,15 23,31 34,48 -11,-17 -22,-33 -34,-48zm54 76c11,16 21,32 32,49 -11,-17 -21,-33 -32,-49zm93 148c7,12 14,24 21,37 -7,-13 -14,-25 -21,-37zm30 54c5,8 9,16 14,24 -5,-8 -9,-16 -14,-24zm30 54l1 2 0 -1 -1 -1zm1 2c5,9 10,18 14,27 -4,-9 -9,-18 -14,-27zm105 221c3,6 5,13 8,19 -3,-6 -5,-13 -8,-19zm82 227l1 5 1 1 -1 -1 -1 -5zm-1216 2979l-1 1 -6 3 6 -3 1 -1zm-84 40c-8,3 -16,7 -24,11 8,-4 16,-8 24,-11zm-195 78c-9,3 -18,6 -27,9 9,-3 18,-6 27,-9zm-31 11c-9,3 -18,6 -28,9 10,-3 19,-6 28,-9zm-30 9c-35,12 -71,22 -106,32 36,-10 71,-20 106,-32zm-397 97c-8,1 -15,2 -23,4 8,-2 15,-3 23,-4zm-29 4c-8,2 -15,3 -23,4 -18,3 -35,5 -53,7 25,-3 50,-7 76,-11zm-78 11c-10,2 -19,3 -29,4 10,-1 19,-2 29,-4zm-34 5c-15,1 -30,3 -45,4 15,-1 30,-3 45,-4zm-47 5c-9,0 -18,1 -27,2 9,-1 18,-2 27,-2zm-35 3c-10,1 -19,1 -29,2 10,-1 19,-1 29,-2zm-30 2l-7 1 -6 0 6 0 7 -1zm-111 6c-9,1 -18,1 -27,1 9,0 18,0 27,-1zm-500 -30l-12 -2 11 2 1 0zm-535 -157l-3 -1c-11,-5 -21,-10 -31,-15 10,5 20,10 31,15l3 1zm-38 -17c-189,-88 -365,-188 -529,-319 -126,-100 -240,-214 -350,-333 37,40 74,79 112,117 75,76 154,149 238,216 87,70 178,130 272,185 83,49 168,93 257,134zm-879 -652c-8,-8 -16,-17 -24,-26 8,9 16,18 24,26zm-24 -26c-28,-31 -57,-62 -85,-93l-1 -1 1 1c28,31 57,62 85,93zm-556 -1337l0 -2c-1,-30 -2,-60 -3,-90 1,30 2,60 3,90l0 2zm-3 -93c-1,-14 -1,-28 -2,-42 -1,-36 -1,-73 -1,-110 0,51 1,102 3,152zm-4 -169c0,-38 1,-75 1,-113 1,-12 1,-23 1,-35l1 -8c-2,52 -3,104 -3,156zm3 -157c0,-11 0,-23 1,-34 -1,11 -1,23 -1,34zm2 -52c1,-29 3,-58 5,-87l-1 8c-1,27 -3,53 -4,79zm5 -87c2,-23 4,-45 6,-67 -2,22 -4,44 -6,67zm8 -90c2,-16 4,-33 6,-49 -2,16 -4,33 -6,49zm30 -203l1 -8 2 -7 -3 15zm7 -35l1 -6 2 -8 -3 14zm54 -195l1 -3c2,-8 5,-15 8,-23 -3,8 -6,15 -8,23l-1 3zm9 -27c4,-10 8,-19 12,-28 -4,9 -8,18 -12,28zm12 -30c16,-38 33,-75 50,-112 -17,37 -34,74 -50,112zm227 -254l6 5c55,55 111,109 165,166l24 25 -15 33 -1 3 1 -3 15 -33 -24 -25c-39,-41 -78,-80 -118,-119 -16,-16 -32,-31 -47,-47l-6 -5zm73 509c-8,22 -14,45 -21,67 7,-22 13,-45 21,-67zm24 1320l1 4m621 -5178c-3,-5 -5,-9 -8,-13l-5 -9c-2,-4 -4,-8 -6,-12 -3,-6 -6,-12 -9,-17 6,13 13,26 20,38 3,4 5,8 8,13zm-30 -56c-2,-4 -5,-8 -7,-12 2,4 5,8 7,12zm-16 -33c-5,-11 -10,-22 -15,-34 -6,-15 -12,-30 -18,-45 7,18 15,37 22,55 4,8 7,16 11,24zm-201 -892l0 -8 0 -6 0 14zm2 -57l0 -5 0 -5 0 10zm204 -624l6 -10 5 -10 -11 20zm25 -46c8,-14 15,-27 23,-41 -8,14 -15,27 -23,41zm24 -43l6 -11c8,-15 17,-31 27,-48l2 -4 3 -4 5 -5 -5 5 -3 4 -2 4c-12,20 -23,40 -33,59zm436 -462l4 -3 4 -3 -8 6zm43 -31l3 -3 4 -3 -7 6zm21 -15l4 -3 3 -2 -7 5zm44 -30l2 -1 3 -2 -5 3zm339 -155l4 -2 4 -1 -8 3zm50 -14l3 -1 4 -1 -7 2zm24 -6l4 -1 4 -1 -8 2zm51 -11l4 -1 4 -1 -8 2zm26 -5l4 -1 5 -1 -9 2zm79 -13l5 -1 5 0 -10 1zm228 -17l6 -1 7 0 -13 1zm62 -1l6 0 7 0 -13 0zm198 5l5 0 3 1 -3 -1 -5 0zm405 101l4 2 6 2 -10 -4zm46 22l5 2c4,3 9,5 13,7 -6,-3 -12,-6 -18,-9zm103 57c77,46 154,98 235,154 44,31 85,62 123,96 -38,-34 -79,-65 -123,-96 -81,-56 -158,-108 -235,-154zm368 258c5,5 10,10 15,14 -5,-4 -10,-9 -15,-14zm30 29c24,24 47,49 69,75 -22,-26 -45,-51 -69,-75zm69 76c6,6 11,12 16,19 -5,-7 -10,-13 -16,-19zm-4985 1886l-14 505 0 4895 -89 -87c-49,-48 -98,-96 -147,-143l-12 -11 -2 -3 -7 -6 -15 -14c-17,-17 -35,-34 -52,-51l-16 -16 1 -22c0,-14 0,-28 1,-42 0,-16 1,-32 2,-48l0 -1 0 -2 0 -2 0 -5 0 0 0 -4 0 -1 0 -6 0 -32 0 -21 1 -51 0 -50 0 -39 0 -24 1 -45c-1,87 -1,175 -2,262 0,20 -1,39 -2,59 0,17 -1,35 -1,52l-1 22 16 16c11,11 22,21 33,32 7,6 13,12 19,19l61 58c41,40 82,79 122,119l89 87 0 -4895 14 -505 0 0c0,0 0,0 0,0 13,13 26,26 39,38 13,13 26,26 39,39 50,50 100,100 150,150 50,51 99,101 149,151 44,45 89,90 133,135 44,46 88,91 132,136l26 27c48,49 96,98 142,148 75,82 151,161 228,240 77,78 155,156 236,231 43,41 86,82 128,123 -42,-41 -85,-82 -128,-123 -161,-151 -314,-308 -464,-471 -55,-59 -112,-117 -168,-175 -88,-91 -176,-181 -265,-271 -99,-100 -199,-201 -299,-301 -26,-26 -52,-51 -78,-77zm-348 4670c0,-58 0,-115 0,-173 0,58 0,115 0,173zm0 -532c0,-86 0,-172 -1,-258 1,86 1,172 1,258zm-1 -352c0,-57 -1,-113 -1,-170 0,57 1,113 1,170zm-2 -270c-1,-108 -2,-216 -3,-324 1,108 2,216 3,324zm-5 -550c-2,-153 -4,-306 -6,-459 2,153 4,306 6,459zm-6 -487c-4,-327 -8,-654 -11,-981l0 -9c-1,-112 -2,-223 -3,-334l0 -38 -1 -53 0 -17c-1,-85 -1,-170 -1,-255l0 -3c-1,-87 -1,-174 -1,-262l0 -4 0 -86c0,-56 0,-113 0,-169l0 -12 0 -68 0 -26 1 -73 0 -7c0,-39 0,-77 0,-116 -5,800 5,1601 15,2401l1 112zm-16 -2520c1,-62 1,-123 2,-185 -1,62 -1,123 -2,185zm2 -190c0,-40 1,-80 1,-121l0 -8 1 -82 0 -5c1,-35 1,-70 2,-105 -2,107 -3,214 -4,321zm6 -456l0 -22 3 -126 87 90c178,183 360,362 541,541 572,563 1168,1108 1714,1696 173,186 356,362 537,539 266,261 533,522 798,783 280,277 559,554 831,839 100,104 199,210 294,320 44,50 95,105 130,162l2 3 2 4c4,12 9,24 14,36 -5,-12 -10,-24 -15,-36l-1 -4 -2 -3c-30,-48 -70,-94 -109,-138 -7,-8 -14,-16 -21,-24 -47,-55 -96,-109 -145,-162 -49,-53 -99,-106 -149,-158 -136,-143 -274,-283 -412,-423 -139,-139 -279,-277 -419,-416 -166,-163 -332,-326 -498,-489 -100,-98 -200,-196 -300,-294 -32,-31 -64,-63 -97,-94 -149,-146 -298,-292 -440,-445 -374,-403 -772,-786 -1169,-1168 -183,-175 -365,-351 -545,-528 -90,-89 -181,-179 -271,-269 -91,-90 -181,-181 -270,-272l-87 -90 -3 126 0 22zm4953 4866c3,8 7,17 10,25l0 1 2 7 1 1c3,8 6,17 8,26 -6,-20 -13,-41 -21,-60zm24 69c10,32 19,64 26,96 -7,-32 -16,-64 -26,-96zm31 122c1,4 2,8 3,13l-3 -13zm8 43c2,15 4,30 6,45 -2,-15 -4,-30 -6,-45zm6 49c1,9 2,18 2,27l1 1c0,10 1,21 1,32l0 2c1,7 1,15 1,23l0 1 0 8c0,5 0,11 0,16l0 1c0,6 0,12 -1,19 2,-44 0,-87 -4,-130zm4 131c0,7 0,14 -1,21l0 1c0,4 0,8 -1,13 1,-12 2,-24 2,-35zm-2 35c0,6 -1,11 -1,16 1,-5 1,-10 1,-16zm-2 26l-1 11 -23 192 -78 -178 -2 -4 -3 -7 -2 -5 -2 -4 -1 -3 -3 -6 -2 -4 -2 -4 -2 -5 -3 -5 -1 -2c-2,-5 -5,-10 -8,-16l-1 -3 -3 -4 -2 -4 -3 -5 -1 -3c-6,-11 -12,-21 -19,-32l-1 -2c-3,-5 -6,-10 -9,-15l0 -1 -5 -7 -1 -1c-3,-6 -7,-11 -10,-16l0 0c-81,-124 -185,-235 -288,-340 -355,-358 -707,-718 -1076,-1061 -175,-162 -330,-344 -500,-511 -264,-259 -521,-524 -783,-785 -138,-136 -275,-272 -415,-406 49,47 97,93 145,140 90,89 180,177 270,266 110,110 220,221 330,332 150,152 301,304 453,453 75,73 146,149 217,224 93,98 185,196 283,287 331,308 648,629 966,950l110 111c72,74 145,150 210,233 65,82 123,170 164,265l78 178 23 -192 1 -11zm-2912 616l-1 -1 -6 -18m3459 -3419l-1 1m-237 114l-2 0m-106 -1l-3 -1 -5 -1m-10 -2l-2 0 -5 -2m-9 -2l-3 -1 -5 -1m164 -2318c-4,12 -8,24 -13,36m401 -180l1 -4 2 -14m4 -36l0 -1c1,-6 2,-11 2,-17m2 -18l0 -1 1 -15 1 -4"/>
   </g>
  </g>
  <g>
   <path class="fil2" d="M9359 6465l-9 -13 -8 -11c-161,-246 -196,-382 -456,-562 -245,-169 -449,-307 -757,-324 -733,-41 -1080,141 -1525,669 -287,512 -308,599 -263,1202 43,115 85,231 128,347 25,66 52,135 87,196 100,175 358,410 501,551l2124 2102c514,483 847,862 925,1602 77,723 -174,1429 -727,1908 -556,481 -1306,634 -2014,456 -645,-163 -1165,-578 -1438,-1187 -194,-431 -259,-888 -160,-1352 33,-152 82,-298 143,-440 6,-16 14,-33 22,-49 -57,-60 -119,-119 -164,-165 -9,-9 -19,-18 -28,-27 -45,102 -100,200 -139,310 -112,320 -114,729 -99,1062 14,314 248,981 457,1214 335,372 541,563 1006,774 633,288 1476,225 2092,-81 1087,-541 1525,-1773 1192,-2914 -85,-289 -267,-625 -456,-859 -143,-177 -353,-319 -344,-574 6,-179 99,-279 220,-389 81,-74 154,-149 225,-233 198,-232 1706,-1774 1833,-1793l-4 526 8 4813c49,-53 99,-106 150,-157 31,-32 74,-65 107,-96 50,-720 -3,-1466 -3,-2189 0,-1185 31,-2372 17,-3558 -11,12 -22,23 -32,34 -332,348 -673,650 -1000,994 -207,219 -419,436 -632,650 -214,215 -430,430 -651,637 -153,144 -377,382 -597,394 -212,13 -381,-146 -528,-277 -147,-132 -289,-270 -430,-409 -204,-200 -410,-404 -605,-612 -174,-185 -368,-340 -537,-536 -346,-399 -520,-865 -352,-1391 119,-373 382,-660 748,-803 207,-81 434,-109 656,-88 809,79 1356,755 1188,1573 -45,217 -136,408 -280,577 -21,25 -44,49 -68,72 62,64 122,129 181,195 44,-54 85,-107 111,-140 248,-310 320,-653 312,-1044 -4,-203 -80,-388 -127,-585zm-5513 758c-34,1879 36,3766 19,5644 0,35 -2,74 -3,112 18,18 37,35 52,50 61,59 122,118 183,177l0 -4770 17 -623c14,0 766,764 897,907 157,170 293,309 462,468 184,174 364,352 544,530 262,260 519,526 783,785 170,166 325,348 499,510 369,343 723,704 1077,1062 171,173 305,329 386,514 19,-163 -11,-332 -79,-496 -30,-49 -88,-112 -125,-155 -94,-109 -193,-214 -292,-318 -271,-284 -550,-562 -830,-837 -265,-262 -532,-522 -798,-783 -180,-177 -367,-356 -539,-542 -517,-556 -1166,-1156 -1711,-1693 -182,-179 -364,-359 -542,-542z"/>
   <path id="1" class="fil1" d="M9359 6465l-9 -13 -8 -11c-37,-58 -68,-109 -97,-157 -25,-42 -48,-81 -73,-118 51,78 97,163 167,270l0 0 3 5 8 11 9 13c2,7 4,14 6,22l1 4c9,37 19,74 30,111 -13,-45 -26,-91 -37,-137zm-194 -310c-6,-8 -11,-16 -17,-24 6,8 11,16 17,24zm-18 -25c-5,-8 -11,-16 -17,-23 6,7 12,15 17,23zm-27 -37c-3,-4 -6,-7 -9,-11 3,4 6,7 9,11zm-15 -19c-7,-7 -13,-15 -19,-22 6,7 12,15 19,22zm-26 -29c-9,-10 -18,-20 -28,-30l-6 -6 -5 -5 -1 -2 -6 -5 -1 -1c-6,-6 -12,-11 -19,-17 7,6 13,11 19,17m-27 -24c-6,-6 -13,-12 -19,-17 6,5 13,11 19,17zm-59 -49c-13,-10 -27,-20 -41,-31l4 4 1 0c13,9 25,18 36,27zm-42 -31c-6,-4 -12,-9 -18,-13 -66,-45 -129,-89 -192,-128 63,39 126,83 192,128 6,4 12,9 18,13zm-214 -143c-6,-4 -13,-8 -19,-12 6,4 13,8 19,12zm-43 -27c-7,-3 -13,-7 -20,-11 7,4 13,8 20,11zm-26 -15c-5,-3 -11,-6 -16,-9 5,3 11,6 16,9zm-52 -28c-10,-5 -20,-10 -30,-15 5,3 10,5 15,7 5,3 10,5 15,8zm-437 -124l-3 0 -4 0 4 0 3 0zm-193 -6l-13 0 7 0 6 0zm-31 1l-12 0 6 0 6 0zm-120 4l-11 0 6 0 0 0 5 0zm-28 2l-11 1 5 -1 0 0 6 0zm-56 5l-11 1 5 -1 1 0 5 0zm-55 6l-9 1 4 0 0 0 5 -1zm-79 13l-9 1 5 -1 4 0zm-25 5l-9 1 4 -1 5 0zm-51 11l-8 2 4 -1 4 -1zm-24 6l-8 2 4 -1 4 -1zm-25 6l-7 2 4 -1 3 -1zm-23 7l-8 2 4 -1 4 -1zm-71 23l-6 3 3 -2 3 -1zm-22 8l-8 4 4 -2 1 0 3 -2zm-22 9l-8 3 4 -1 4 -2zm-23 9l-7 4 3 -2 1 0 3 -2zm-89 43l-3 2 2 -1 1 -1zm-586 511l-5 6 0 0c-13,24 -26,47 -38,69 12,-22 25,-45 38,-69l5 -6zm-285 760l0 11 0 -6 0 -5zm-1 52l0 13 0 -6 0 -7zm0 21c0,16 0,33 0,51 0,-9 0,-18 0,-27 0,-8 0,-16 0,-24zm0 55l1 17 0 3 0 18 0 -9 -1 -21 0 -8zm2 62c1,21 2,42 3,64 0,-11 -1,-22 -2,-33 0,-10 0,-21 -1,-31zm5 90c3,51 7,107 11,168 10,26 20,53 30,80 -10,-27 -20,-54 -30,-80 -3,-47 -7,-91 -9,-133 -1,-12 -2,-23 -2,-35zm41 248l24 66c11,28 21,57 31,85 -18,-50 -37,-101 -55,-151zm55 151c15,39 29,77 43,116l6 15 -6 -15 -12 -33 0 0c-10,-28 -20,-55 -31,-83zm71 187c4,10 8,19 12,29l4 9c13,30 27,59 43,87l3 5 1 2 3 4 -2 -2 0 -1m-48 -95c13,30 27,59 43,87l3 5m4 6l2 4 2 4 2 4 3 4 2 2c5,9 11,18 17,26l-2 -3 -1 -2c-4,-5 -8,-11 -11,-16l-1 -1 -5 -7 0 -1 -5 -8 0 0m38 56c96,132 251,282 373,399l21 21c-102,-98 -234,-224 -334,-343l0 -1c-22,-26 -42,-51 -60,-76zm394 420c21,21 41,40 59,58l2124 2102c257,241 469,457 626,705 158,247 260,527 299,897 4,34 7,67 9,101l0 -5c-1,-9 -2,-18 -2,-27l-1 -4c0,-9 -1,-19 -2,-29l-1 -5c0,-9 -1,-19 -2,-28l-1 -3 0 -3c-1,-9 -2,-19 -3,-28l-1 -7c-1,-9 -2,-18 -3,-27l-1 -6c-1,-10 -3,-21 -4,-31 -2,-10 -3,-20 -5,-30l-1 -5c-1,-10 -3,-20 -5,-30 -1,-10 -3,-19 -5,-29l-1 -6c-1,-8 -3,-17 -5,-25l-1 -7c-2,-8 -3,-16 -5,-24l-1 -6c-2,-9 -4,-18 -6,-27l-1 -2c-2,-9 -4,-19 -6,-28l-1 -2c-2,-8 -4,-17 -6,-26l-2 -6c-2,-8 -4,-15 -6,-23l-2 -6c-2,-8 -4,-15 -6,-23l-2 -6c-2,-8 -5,-17 -7,-25l-1 -1c-2,-8 -5,-17 -8,-25l-2 -6c-2,-7 -4,-14 -7,-21l-2 -7c-2,-7 -5,-14 -7,-21l-3 -6c-2,-7 -5,-14 -7,-21l-3 -6c-2,-7 -5,-14 -7,-20l-3 -7c-3,-7 -5,-13 -8,-20l-3 -6c-2,-7 -5,-13 -8,-20l-2 -6c-3,-7 -6,-13 -9,-20l-3 -6c-3,-6 -6,-13 -9,-19l-3 -7c-3,-7 -6,-13 -9,-20l-2 -3c-3,-7 -6,-13 -10,-20l-3 -7c-3,-6 -6,-12 -9,-18l-4 -7c-3,-5 -6,-11 -9,-17l-4 -7c-3,-6 -6,-12 -10,-18l-3 -5c-3,-6 -7,-12 -10,-18l-4 -7c-3,-6 -7,-12 -10,-17l-4 -7c-4,-6 -7,-12 -11,-18l-2 -4c-4,-6 -8,-12 -12,-18l-2 -3 -2 -3c-3,-6 -7,-12 -11,-17l-4 -7c-4,-6 -8,-12 -12,-18l-2 -3c-4,-6 -8,-12 -13,-18l-4 -7 -10 -14 -7 -9 -10 -15 -5 -6c-4,-6 -8,-12 -13,-18l-2 -3c-5,-6 -9,-12 -13,-18l-5 -6 -12 -15 -6 -8 -11 -14 -6 -8c-4,-5 -9,-10 -13,-16l-4 -4 -12 -15 -7 -8 -12 -15 -6 -7 -14 -16 -4 -5 -13 -14 -8 -10 -10 -11 -10 -11 -9 -10 -12 -13 -7 -8 -11 -12 -10 -11 -12 -12 -7 -8 -13 -14 -8 -7 -12 -13 -9 -10 -13 -13 -7 -7 -18 -18 0 0c-21,-21 -42,-42 -63,-63l-8 -8 -14 -13 -5 -6c-41,-39 -83,-79 -127,-120l-2124 -2102c-18,-18 -38,-37 -59,-58zm3117 3864c1,22 2,45 3,67l0 -4c0,-9 -1,-18 -1,-27l0 -7c-1,-8 -1,-16 -2,-25l0 -4zm3 67c1,11 1,23 1,34l0 -4c0,-9 0,-19 -1,-28l0 -2zm1 34c0,10 1,21 1,32l0 -5c0,-8 -1,-17 -1,-25l0 -2zm1 34c0,11 0,21 0,32l0 -4c0,-9 0,-17 0,-26l0 -2zm0 33c0,11 -1,22 -1,32l0 -4c0,-8 1,-17 1,-26l0 -2zm-1 34c0,10 0,20 -1,30l0 -4c1,-8 1,-16 1,-24l0 -2zm-1 35c0,9 -1,19 -1,29l0 -4m0 8c-1,10 -1,19 -2,29l0 -4c1,-7 1,-15 2,-23l0 -2zm-2 33c-1,10 -2,20 -2,31l0 -4c1,-8 1,-17 2,-25l0 -2zm-3 33c0,9 -1,19 -2,29l0 -4c1,-7 2,-15 2,-23l0 -2zm-3 34c0,10 -1,19 -2,29l0 -3c1,-8 1,-16 2,-23l0 -3zm-3 32c-1,10 -2,19 -3,29l0 -3c1,-8 2,-16 3,-23l0 -3zm-4 34c-1,9 -2,19 -3,28l0 -3c1,-8 2,-15 3,-23l0 -2zm-4 32c-1,10 -3,20 -4,30l0 -3c1,-8 3,-16 4,-24l0 -3zm-5 33c-1,9 -3,19 -4,29l0 -3c2,-8 3,-16 4,-24l0 -2zm-5 33c-1,9 -3,19 -5,28l1 -3c1,-7 2,-15 4,-23l0 -2zm-6 33c-1,9 -3,18 -5,27l1 -2c1,-7 2,-15 4,-22l0 -3zm-6 32c-2,10 -4,19 -6,28l1 -2c1,-8 3,-15 5,-23l0 -3zm-6 32c-2,9 -4,19 -7,28l1 -2c2,-8 3,-15 5,-23l1 -3zm-8 33c-2,9 -4,19 -6,28l0 -2c2,-8 4,-16 6,-23l0 -3zm-7 30c-2,10 -5,19 -7,29l0 -2c3,-8 5,-16 6,-24l1 -3zm-8 33c-3,9 -5,19 -8,28l1 -2c2,-8 4,-15 6,-23l1 -3zm-9 32c-2,10 -5,19 -8,29l1 -2c2,-8 4,-16 7,-24l0 -3zm-8 29c-3,11 -6,21 -9,31l0 -2c3,-9 6,-17 8,-26l1 -3zm-10 32c-3,10 -6,20 -9,30l1 -2c2,-8 5,-17 8,-25l0 -3zm-10 32c-3,9 -6,19 -9,29l0 -2c3,-8 6,-16 8,-24l1 -3zm-10 31c-3,10 -7,20 -10,29l1 -2c2,-8 5,-16 8,-24l1 -3zm-10 30c-6,14 -11,29 -16,43 -14,36 -29,72 -45,108l1 -2c4,-8 7,-17 11,-25l2 -4c3,-9 7,-17 10,-26l2 -5c4,-8 7,-17 11,-26l1 -3 7 -17 3 -9 2 -5c3,-9 6,-17 9,-26l2 -3zm-61 152c-4,9 -9,19 -13,28l0 -1c4,-8 8,-16 11,-24l2 -3zm-14 30c-9,19 -18,39 -28,58l1 -2c4,-8 8,-16 12,-24l2 -5c4,-9 8,-17 12,-25l1 -2zm-28 59c-5,9 -10,19 -15,28l1 -2c5,-8 9,-17 13,-25l1 -1zm-15 29c-5,9 -10,18 -15,27l1 -1c4,-8 8,-15 12,-23l2 -3zm-16 29c-5,9 -10,18 -15,27l1 -1c4,-8 9,-16 13,-24l1 -2zm-16 29c-5,9 -10,18 -15,27l1 -2c4,-8 9,-16 14,-24l0 -1zm-16 28c-5,9 -10,18 -16,27l1 -2c5,-8 10,-15 14,-23l1 -2zm-17 29c-5,9 -11,18 -16,27l1 -3c5,-7 10,-15 14,-23l1 -1zm-16 27c-6,9 -12,18 -18,27l1 -2c5,-8 10,-15 15,-23l2 -2zm-18 28c-6,9 -12,17 -17,26l1 -2c5,-7 9,-15 14,-22l2 -2zm-19 28c-6,9 -11,17 -17,26l1 -3c5,-7 10,-14 15,-22l1 -1zm-18 27c-6,8 -12,17 -18,26l1 -2c5,-8 11,-15 16,-23l1 -1zm-19 27c-6,8 -12,17 -19,25l2 -2c5,-7 11,-14 16,-22l1 -1zm-19 27c-7,8 -13,17 -20,25l2 -2c6,-7 11,-15 17,-22l1 -1zm-20 26c-7,8 -13,17 -20,26l2 -3c5,-7 11,-14 16,-21l2 -2zm-20 26c-7,9 -14,17 -21,26l2 -3c6,-7 12,-14 17,-22l2 -1zm-21 26c-7,8 -14,16 -21,25l2 -2c6,-7 12,-14 17,-21l2 -2zm-22 26c-7,8 -14,16 -21,25l2 -3c6,-7 12,-14 18,-21l1 -1zm-21 25c-66,76 -138,148 -215,215 -96,83 -197,155 -302,219l1 -1c8,-5 16,-10 24,-15l5 -3c7,-5 15,-9 23,-14l5 -4c8,-5 15,-9 23,-14l5 -4c8,-5 16,-11 24,-16l4 -3c8,-5 16,-11 23,-16l5 -3c8,-6 15,-12 23,-17l4 -3c8,-6 15,-11 23,-17l4 -4c8,-6 16,-12 24,-18l3 -2c8,-6 15,-12 23,-18l5 -5c7,-6 14,-11 21,-17l6 -5c7,-6 14,-12 21,-18l3 -2 2 -2c7,-6 14,-13 21,-19l5 -4c7,-6 13,-12 20,-19l5 -4c7,-7 14,-13 21,-20l4 -3c7,-7 14,-14 20,-20l5 -4c6,-7 13,-13 19,-20l4 -4c7,-7 14,-14 20,-20l3 -4c7,-7 13,-14 20,-21l4 -4c6,-7 12,-14 19,-21l3 -4c6,-6 12,-13 18,-20l2 -2zm-519 435c-9,5 -18,10 -28,16l2 -1c8,-5 16,-9 24,-14l2 -1zm-28 16c-19,11 -39,22 -58,33l2 -2c8,-4 16,-8 24,-13l5 -3c8,-4 16,-9 24,-13l3 -2zm-59 33c-9,5 -19,10 -28,15l2 -1c7,-4 15,-8 22,-12l4 -2zm-30 16c-10,5 -19,9 -29,14l3 -1c8,-4 15,-8 23,-12l3 -1zm-29 14c-10,5 -20,10 -30,15l-3 1c-8,4 -16,8 -24,12l-3 1c10,-5 20,-9 30,-14l3 -2c8,-3 16,-7 24,-11l3 -2zm-60 29c-10,5 -20,9 -30,14l3 -2c8,-3 16,-7 24,-11l3 -1zm-31 14c-10,4 -19,8 -29,12l2 -1c8,-3 16,-6 24,-10l3 -1zm-31 13c-9,4 -19,8 -29,12l2 -1c8,-3 16,-6 24,-10l3 -1zm-31 13c-9,4 -19,8 -29,11l2 0c8,-4 17,-7 26,-10l1 -1zm-31 12c-9,4 -19,8 -29,11l2 -1c9,-3 17,-6 26,-9l1 -1zm-30 12c-11,3 -21,7 -31,11l2 -1c9,-3 18,-6 27,-10l2 0zm-31 11c-10,3 -21,7 -31,10l3 -1c9,-3 17,-6 26,-9l2 0zm-32 11c-10,3 -20,6 -30,9l3 -1c8,-2 17,-5 25,-8l2 0zm-32 10c-20,6 -41,13 -62,19l4 -1c8,-3 17,-5 25,-8l5 -1c9,-3 17,-6 26,-8l2 -1zm-63 19c-10,3 -20,6 -31,8l3 0c9,-3 17,-5 26,-7l2 -1zm-32 9c-10,3 -21,5 -31,8l3 -1c9,-2 18,-5 27,-7l1 0zm-32 8c-17,4 -34,8 -51,12l-11 3 3 -1 8 -2 17 -4 5 -1c9,-2 18,-4 27,-6l2 -1zm-65 15c-21,5 -42,9 -63,13l3 0c9,-2 18,-4 27,-6l5 -1c9,-1 17,-3 26,-5l2 -1zm-65 14c-10,2 -21,4 -32,5l4 0c9,-2 17,-3 26,-5l2 0zm-32 5c-10,2 -21,4 -31,6l3 -1c9,-1 17,-3 26,-4l2 -1zm-34 6c-10,2 -20,3 -30,5l3 -1c8,-1 17,-2 25,-4l2 0zm-32 5c-10,1 -20,3 -30,4l3 0c8,-2 16,-3 24,-4l3 0zm-34 4c-10,2 -20,3 -30,4l3 0c8,-1 17,-2 25,-3l2 -1zm-32 4c-11,2 -21,3 -31,4l3 -1c8,-1 17,-1 25,-2l3 -1zm-34 4c-10,1 -20,2 -30,3l3 -1c9,0 17,-1 25,-2l2 0zm-33 3c-10,1 -20,1 -30,2l3 0c8,-1 16,-1 25,-2l2 0zm-33 2c-10,1 -20,2 -30,2l3 0c8,0 16,-1 24,-1l3 -1zm-34 2c-10,1 -19,1 -29,2l3 0c8,-1 16,-1 23,-1l3 -1zm-34 2c-9,0 -19,1 -28,1l2 0c8,0 16,-1 24,-1l2 0zm-33 1c-10,0 -19,0 -29,1l3 0c7,-1 15,-1 23,-1l3 0zm-34 1c-9,0 -19,0 -28,0l3 0c7,0 15,0 22,0l3 0zm-33 0c-10,0 -20,0 -29,-1l2 0c8,1 16,1 24,1l3 0zm-33 -1c-10,0 -20,0 -31,0l3 0c8,0 17,0 25,0l3 0zm-32 -1c-11,0 -21,0 -31,-1l2 0c9,1 17,1 25,1l4 0zm-36 -1c-9,0 -19,-1 -29,-2l3 1c7,0 15,0 23,1l3 0zm-33 -2c-10,0 -20,-1 -30,-2l3 0c8,1 15,1 23,2l4 0zm-33 -2c-10,-1 -20,-2 -30,-3l2 1c8,0 16,1 24,2l4 0zm-34 -3c-10,-1 -20,-2 -30,-3l2 0c8,1 17,2 25,3l3 0zm-32 -3c-11,-1 -21,-2 -32,-4l2 1c9,1 18,2 26,2l4 1zm-34 -4c-10,-1 -21,-3 -32,-4l3 0c8,1 17,3 25,4l4 0zm-33 -4c-11,-2 -21,-3 -31,-5l2 1c8,1 17,2 25,3l4 1zm-35 -5c-10,-2 -20,-3 -31,-5l3 0c8,2 16,3 24,4l4 1zm-32 -5c-66,-11 -133,-25 -199,-41 -80,-21 -159,-45 -235,-73l3 1c8,3 15,6 23,8l6 2c7,3 15,6 22,8l7 2c8,3 16,6 24,9l3 0c9,3 18,6 27,9l2 1c9,2 18,5 26,7l6 2c8,2 16,5 25,7l3 1c9,3 17,5 26,7l5 1c8,3 16,5 24,7l3 1 3 0c9,2 17,5 26,7l8 1c9,3 17,5 26,7l6 1c9,2 18,4 27,6l6 1c9,2 18,4 27,5l7 2c8,1 17,3 26,5l6 1c9,1 18,3 27,4l4 1zm-435 -114c-19,-7 -38,-14 -56,-22l3 2c8,3 15,5 23,8l5 2m-32 -12c-19,-8 -37,-15 -56,-23l4 1c7,4 15,7 22,10l6 2c7,3 15,6 22,9l2 1zm-56 -23c-9,-4 -18,-8 -27,-12l4 2c7,3 14,6 21,9l2 1zm-28 -13c-18,-8 -36,-16 -53,-24l3 1c6,3 13,7 20,10l7 3c7,3 14,6 20,9l3 1zm-55 -25c-9,-4 -18,-8 -26,-13l3 2c7,3 14,7 21,10l2 1zm-27 -13c-8,-4 -17,-9 -26,-13l3 1c7,4 14,7 21,11l2 1zm-27 -14c-8,-4 -16,-8 -24,-13l3 2c6,3 13,7 19,10l2 1zm-27 -14c-8,-4 -16,-9 -25,-13l3 1c7,4 13,7 20,11l2 1zm-26 -14c-17,-9 -34,-19 -51,-29l4 2c6,4 13,8 19,11l6 4c7,3 13,7 20,11l2 1zm-52 -29c-8,-5 -16,-10 -24,-15l3 2c6,3 12,7 18,10l3 3zm-26 -16c-33,-20 -66,-41 -99,-63l3 1c6,4 12,8 18,12l7 5c6,4 12,8 18,12l7 4c6,4 12,8 19,12l6 4c6,4 12,8 19,12l2 1zm-100 -64c-16,-11 -32,-23 -48,-34l3 2c6,4 12,9 18,13l7 5c6,4 12,8 18,12l2 2zm-48 -34c-8,-6 -16,-12 -23,-18l3 3c5,4 11,8 17,12l3 3zm-24 -18c-26,-19 -51,-39 -76,-60 -36,-30 -71,-60 -105,-92l3 2c5,5 10,10 16,15l6 5c5,5 11,10 16,15l5 5c6,5 12,10 17,15l5 4c6,5 12,10 18,15l5 5 14 11 4 3 5 4c6,5 11,10 17,15l6 4c6,5 12,10 18,14l5 4c6,5 12,9 18,14l3 2zm-181 -153c-7,-6 -14,-13 -21,-20l3 3c5,5 10,10 15,15l3 2zm-21 -20c-8,-7 -15,-14 -21,-21l2 2c5,6 11,11 16,16l3 3zm-22 -21c-6,-7 -13,-14 -20,-21l3 3c5,5 10,10 15,15l2 3zm-21 -22c-13,-13 -27,-27 -40,-42l3 3c5,5 10,11 15,16l5 5c5,6 10,11 15,16l2 2zm-41 -43c-6,-7 -12,-14 -18,-21l2 3c5,5 10,11 15,16l1 2zm-20 -22c-6,-7 -12,-14 -18,-21l3 3c5,6 9,11 14,16l1 2zm-19 -23c-7,-7 -13,-14 -19,-21l3 3c4,5 9,10 13,16l3 2zm-19 -22c-6,-7 -12,-15 -18,-22l2 4c5,5 9,10 14,16l2 2zm-19 -23c-6,-7 -12,-15 -18,-22l3 3c4,6 8,11 13,16l2 3zm-20 -24c-5,-7 -11,-15 -17,-22l3 3c4,6 8,11 13,17l1 2zm-17 -23c-6,-8 -12,-15 -18,-23l2 3c5,6 9,12 14,18l2 2zm-18 -24c-6,-8 -12,-16 -18,-24l2 3c5,6 9,13 14,19l2 2zm-18 -24c-6,-8 -11,-16 -17,-24l2 3c5,6 9,13 14,19l1 2zm-18 -25c-5,-8 -11,-16 -16,-23l2 2c4,7 9,13 13,19l1 2zm-17 -25c-5,-8 -11,-16 -16,-24l2 3m-2 -4c-11,-16 -22,-33 -32,-50l2 4c4,6 8,13 12,19l4 6m-19 -30c-5,-9 -10,-17 -15,-26l2 4c4,7 8,13 12,20l1 2zm-16 -26c-5,-8 -10,-17 -15,-25l2 2c4,7 8,14 12,21l1 2zm-15 -27c-36,-61 -69,-126 -98,-192 -22,-47 -41,-94 -59,-142l2 4 5 14 2 5 6 16 2 5 6 14 2 6 7 17 1 2 7 17 2 4 7 15 2 6 6 13 2 4 1 2c3,8 7,16 11,24l2 5c3,8 7,15 10,22l4 7c3,8 7,16 11,24l2 2c4,8 7,16 11,24l3 5m-114 -257c-23,-62 -44,-123 -62,-185l1 3 4 13 2 7 5 15 1 5 5 16 2 5 5 15 2 6 4 14 3 7 5 16 1 4 6 15 2 6 5 14 3 8 4 10 2 6zm-62 -186c-6,-21 -11,-41 -17,-62l2 5 3 12 1 6 4 15 2 6 4 14 1 4zm-17 -63c-24,-94 -42,-189 -53,-285 -4,-31 -7,-62 -9,-93l0 6 1 11 1 7 1 13 1 9 1 12 1 10 1 12 1 10 1 3 1 7 1 10 2 13 1 8 2 14 1 7 2 13 1 8 2 12 1 9 3 15 0 4 3 15 2 8 2 13 2 9 2 10 2 10 3 13 2 9 2 12 2 6 3 16 1 5 4 15 2 9 3 10 1 5zm-62 -380c-2,-28 -4,-56 -5,-84l1 7 0 8 1 13 0 8 1 13 0 8 1 13 0 7 1 7zm-5 -85c0,-14 0,-28 0,-42l0 6 0 10 0 10 0 11 0 5zm0 -42c0,-7 -1,-14 -1,-21l1 5 0 11 0 5zm-1 -22c0,-7 1,-14 1,-20l0 5 0 10 -1 5zm1 -23c0,-6 0,-13 0,-19l0 8 0 6 0 5zm0 -20c0,-7 0,-13 0,-20l0 7 0 8 0 5zm1 -23c0,-21 1,-41 3,-62l-1 4 0 13 -1 7 -1 15 0 6 0 13 0 4zm3 -63c0,-7 0,-14 1,-21l0 4 -1 13 0 4zm1 -22c1,-7 1,-13 2,-20l-1 4 -1 13 0 3zm2 -21c0,-7 1,-14 2,-21l-1 4 -1 13 0 4zm2 -21c2,-29 6,-58 10,-86l-1 5 -2 13 -1 7 -1 14 -1 7 -2 15 -1 7 -1 14 0 4zm10 -87c4,-29 8,-58 14,-86l-1 5 -3 12 -1 9 -2 12 -1 9 -3 16 -1 5 -2 14 0 4zm14 -87c4,-21 8,-43 12,-65 17,-76 37,-150 61,-224 22,-68 48,-136 76,-203l6 -13 2 -6 0 -1 3 -7c-2,5 -4,9 -5,14l-6 13c-10,23 -19,47 -29,71 -4,12 -9,24 -14,37 -26,70 -49,141 -68,213l-2 7 -1 4 -1 6 -1 3c-2,6 -3,13 -5,19l-1 3 -2 11c-3,12 -6,24 -9,35l-1 8 -2 7 -1 3 0 4 -3 15 -2 7 -2 13 -2 9 -2 11 -1 6zm165 -529l0 -1c4,-8 8,-16 11,-24 -41,-44 -85,-87 -123,-125 -14,-14 -28,-27 -40,-40l-8 -7 8 7c45,46 107,105 164,165l-6 11 0 1 -2 4 0 1 -1 1 -3 7zm-174 -211l-6 -6c-7,15 -14,31 -21,47l-1 1c-12,26 -26,53 -38,80l-1 0m39 -80c-9,18 -17,37 -26,55 -29,58 -57,117 -81,180 17,-43 35,-85 55,-125l0 -2m-55 127c-3,9 -7,18 -10,27l-1 3 1 -3c3,-9 7,-18 10,-27zm-53 177l-3 12 1 -6 -3 16 -2 6 3 -12 1 -4m-47 307c-1,16 -2,32 -4,48 1,-8 2,-17 2,-25 1,-8 2,-16 2,-23zm-6 83c-8,126 -8,253 -5,374 -1,-25 -1,-50 -2,-75l0 -17c0,-11 0,-22 0,-33l0 -17 0 -17 0 -17 1 -17c0,-12 0,-23 0,-35l1 -17 0 -17c0,-17 1,-34 2,-52l1 -17 1 -17 1 -17 0 -9zm-5 390c2,41 3,81 5,120l0 2 0 -2c-2,-39 -3,-79 -5,-120zm10 179l0 6 0 -2 0 -1 0 -3zm7 52l1 8 -1 -3 0 -2 0 -3zm57 258c3,10 6,21 9,32l-1 -5 -1 -2 -6 -20 0 0 -1 -5zm30 102l6 19 -2 -6 -1 -2 -3 -11zm71 206l3 7 -1 -3 0 0 -2 -4zm25 63l4 11 -1 -4 0 -1 -3 -6zm74 168l4 9 -2 -4 0 -1 -2 -4zm117 212l4 6 -1 -2 -1 -1 -2 -3zm10 15l4 5 -2 -2 0 -1 -2 -2zm60 77l1 2c71,78 135,148 197,212 -62,-64 -126,-134 -197,-212l-1 -2zm201 216c17,18 34,35 52,52 -18,-17 -35,-34 -52,-52zm799 557l7 3 1 1 -1 -1 -7 -3zm95 40l5 2 -3 -1 0 0 -2 -1zm31 12l5 2 -2 -1 -2 0 -1 -1zm30 11l6 2 -2 -1 -2 0 -2 -1zm31 11l7 2 -3 -1 -2 -1 -2 0zm31 10l8 2 -3 -1 -3 -1 -2 0zm31 9l9 3 -3 -1 -4 -1 -2 -1zm33 10l7 2 -3 -1 -2 -1 -2 0zm31 8l8 3 -2 -1 -4 -1 -2 -1zm33 9l7 2 -2 -1 -3 -1 -2 0zm32 8l8 1 -3 0 -2 -1 -3 0zm32 7l8 1 -2 0 -3 -1 -3 0zm32 6l10 2 -3 0 -4 -1 -3 -1zm33 7l9 1 -2 0 -3 0 -4 -1zm34 6l8 1 -2 0 -2 0 -4 -1zm33 5l9 2 -3 -1 -2 0 -4 -1zm33 5l11 2 -4 -1 -3 0 -4 -1zm34 5l10 1 -4 -1 0 0 -6 0zm69 7l10 1 -5 0 -1 0 -4 -1zm68 6l11 1 -5 0 -3 -1 -3 0zm36 2l7 1 -4 -1 -1 0 -2 0zm33 2l10 0 -4 0 -4 0 -2 0zm35 1l9 0 -4 0 -3 0 -2 0zm33 1l10 0 -3 0 -4 0 -3 0zm35 0l8 0 -3 0 -2 0 -3 0zm35 0l7 0 -3 0 -1 0 -3 0zm34 0l7 0 -3 0 -1 0 -3 0zm34 -1l7 0 -3 0 0 0 -4 0zm34 -2l8 0 -3 0 -2 0 -3 0zm35 -1l7 -1 -3 0 -1 0 -3 1zm34 -3l8 0 -3 0 -2 0 -3 0zm473 -76l7 -1 -2 0 -1 0 -4 1zm163 -46l7 -2 -3 0 -1 1 -3 1zm32 -11l8 -2 -3 1 -3 1 -2 0zm32 -11l6 -2 -2 1 -1 0 -3 1zm32 -11l6 -2 -3 1 -1 0 -2 1zm31 -11l7 -3 -3 1 -2 1 -2 1zm92 -38l6 -2 -3 1 -1 1 -2 0zm118 -54l2 -1 2 -1 -2 1 -2 1zm101 -53l4 -3 -2 2 -1 0 -1 1zm48 -28l5 -3 -2 1 -2 2 -1 0zm48 -29l5 -3 -2 2 -2 1 -1 0zm46 -29l6 -4 -2 2 -3 1 -1 1zm46 -31l5 -3 -2 1 -2 2 -1 0zm44 -31l6 -4 -1 1 -4 3 -1 0zm44 -32l5 -4 -1 1 -3 2 -1 1zm43 -33l5 -5 -2 2 -2 2 -1 1zm41 -34l6 -5 -2 1 -3 3 -1 1zm41 -35l6 -5 -2 1 -3 3 -1 1zm39 -36l6 -5 0 1 -5 4 -1 0zm39 -36l6 -6 -1 1 -4 4 -1 1zm38 -37l5 -6 0 1 -4 4 -1 1zm37 -38l5 -6 -1 1 -3 3 -1 2zm36 -40l5 -4 -1 0 -3 3 -1 1zm35 -39l4 -5 0 1 -3 3 -1 1zm33 -40l5 -6 -1 2 -2 3 -2 1zm34 -41l4 -5 -1 1 -2 2 -1 2zm32 -42l3 -4 0 0 -2 2 -1 2zm31 -42l3 -5 -1 1 -1 2 -1 2zm59 -87l2 -4 0 1 0 0 -2 3zm106 -182l2 -4 -1 2 0 1 -1 1zm24 -46l2 -4 -1 1 -1 2 0 1zm23 -47l2 -5 -1 1 -1 4 0 0zm21 -47l2 -5 0 2 -1 2 -1 1zm21 -47l2 -7 -1 3 -1 2 0 2zm19 -49l3 -6 -1 2 -1 3 -1 1zm19 -49l2 -6 0 2 -1 3 -1 1zm18 -49l2 -7 -1 3 -1 3 0 1zm16 -50l2 -5 -1 3 0 0 -1 2zm16 -50l1 -5 -1 3 0 0 0 2zm51 -202l1 -5 0 2 0 0 -1 3zm10 -51l1 -6 0 1 -1 2 0 3zm9 -51l1 -7 0 1 0 3 -1 3zm8 -51l1 -9 0 1 -1 5 0 3zm7 -54l1 -7 0 1 0 4 -1 2zm6 -53l1 -7 0 1 -1 4 0 2zm5 -53l1 -7 0 2 -1 3 0 2zm4 -51l0 -10 0 1 0 6 0 3zm3 -55l0 -8 0 2 0 4 0 2zm1 -53l0 -9 0 2 0 5 0 2zm1 -54l0 -9 0 2 0 5 0 2zm-1 -52l0 -11 0 2 0 7 0 2zm-1 -55l-1 -10 0 2 1 6 0 2zm-3 -53l-1 -11 0 2 1 7 0 2zm-4 -55l-1 -10 1 2 0 6 0 2zm-5 -55l-1 -8 1 2 0 5 0 1zm-6 -53l-1 -10 0 2 1 6 0 2zm-7 -55l-1 -9 0 3 1 5 0 1zm-8 -54l-2 -9 1 3 0 4 1 2zm-10 -55l-1 -7 0 3 1 3 0 1zm-10 -54l-2 -6 1 2 0 3 1 1zm-12 -54l-1 -6 0 3 1 2 0 1zm-13 -54l-1 -6 0 3 1 2 0 1zm-14 -53l-1 -6 1 4 0 0 0 2zm-15 -54l0 -2 -2 -6 2 6 0 2zm-11 -37c-3,-8 -5,-17 -8,-25 3,8 5,17 8,25zm-61 -169c-9,-21 -19,-43 -28,-64 9,21 19,43 28,64zm-38 -87c-4,-8 -8,-16 -11,-24 3,8 7,16 11,24zm-48 -99c-8,-17 -17,-34 -26,-52 9,18 18,35 26,52zm-59 -111c-6,-12 -13,-24 -21,-36 7,10 12,21 18,31l1 1 2 4zm-39 -68c-4,-7 -8,-14 -13,-21 5,7 9,14 13,21zm-34 -55c-7,-11 -14,-22 -21,-33 7,11 14,22 21,33zm-34 -54c-4,-6 -8,-12 -13,-18 5,6 9,12 13,18zm-21 -31c-18,-26 -35,-50 -53,-74 18,24 35,48 53,74zm-54 -76c-14,-20 -29,-39 -44,-57 15,18 30,37 44,57zm-54 -70l-3 -4c-34,-42 -71,-82 -108,-121 -57,-61 -114,-121 -158,-188 3,4 6,8 9,13l0 0 5 7 0 0c6,9 12,17 19,26l0 0c70,92 160,173 233,263l3 4zm-275 -323c-5,-8 -10,-17 -15,-26 2,5 5,10 8,15l1 0c2,4 4,8 6,11zm-15 -26c-4,-6 -7,-12 -10,-18l3 5 0 0 3 7 1 1 3 5zm-10 -19c-2,-3 -3,-6 -5,-9 2,3 3,6 5,9zm-5 -9c-1,-3 -2,-5 -4,-8l1 2 0 0 3 6zm-5 -11c-1,-2 -2,-5 -3,-8l2 5 0 1 1 2zm-3 -8c-3,-6 -6,-13 -8,-19l1 2 0 2c2,5 4,10 7,15zm-12 -30c-2,-6 -4,-13 -6,-19 2,5 3,11 5,16l1 2 0 1zm-6 -21c-1,-3 -2,-5 -3,-8l1 2 1 4 1 2zm-3 -9c-2,-7 -3,-14 -5,-20l1 1 1 5 2 8 1 4 0 2zm-5 -22c-1,-3 -1,-6 -2,-9l1 3 0 3 1 3zm-2 -10c-1,-3 -1,-6 -2,-10l1 5 1 3 0 2zm-2 -10c0,-4 -1,-7 -1,-11l0 1 0 1c0,3 1,6 1,9zm-1 -12c-1,-3 -1,-6 -1,-9l0 1 0 5 1 3zm-2 -11c0,-3 0,-7 0,-10l0 3 0 5 0 2zm0 -11c-1,-7 -1,-15 -1,-22l0 2 0 4c0,3 0,6 0,10l0 5 1 1zm-1 -23c-1,-4 -1,-7 -1,-10l0 2 1 6 0 2zm-1 -12c1,-3 1,-7 1,-11 0,-22 3,-44 6,-64l0 -2 1 -4 1 -2 0 -4 1 -5 1 -2 0 -3c12,-51 31,-94 57,-135 39,-61 92,-113 153,-168 40,-37 79,-74 116,-113 37,-38 73,-78 109,-120 119,-139 712,-753 1193,-1224 206,-201 392,-377 511,-478l-4 4 -14 11 -8 8 -15 13 -9 8 -14 12 -11 10 -18 16 -10 9 -14 12 -15 14 -13 13 -19 17 -9 8 -21 20 -13 12 -19 17 -13 13 -15 14 -9 8 -30 29 -7 6 -23 23 -16 15 -20 19 -13 12 -19 18 -20 20 -19 18 -13 13 -21 21 -6 5 -40 40 -1 0 0 0c-37,37 -74,74 -113,111l-2 3c-385,381 -810,818 -999,1023l-3 3c-11,11 -20,22 -29,32l-4 4 -12 13 -6 7 -5 5 -8 9 -5 6 -3 4 -4 4c-71,84 -144,159 -225,233 -54,49 -102,96 -140,148l0 1 -4 5 0 1c-3,3 -5,7 -7,10l-1 1 -1 3 -2 2c-4,6 -7,12 -11,18 -2,4 -4,8 -6,11l0 1 -3 4 -1 3 -2 5 0 0 -3 6 0 1 -3 5 0 1 -2 5 -1 2 -2 5 -1 1 -2 5 -1 2 -1 4 -1 2c-1,4 -3,9 -4,13l-2 6 -1 1 -1 6 -1 1 -1 5 0 2c-2,4 -3,9 -4,13l0 1 -1 3c-1,7 -3,15 -4,22l-1 4 0 1 -1 5 0 3 -1 5 0 3 -1 5 0 3 0 5 -1 3 0 4 0 4 -1 4 0 5 0 4 0 4 0 2 0 3 -1 7 0 1zm2152 -2336c14,-12 27,-23 39,-32l-2 1c-5,4 -10,8 -15,12l-5 4 -14 12 -3 3zm40 -33c6,-5 11,-10 17,-14l-2 2c-4,3 -9,6 -13,10l-2 2zm17 -14c17,-13 31,-23 43,-30l-1 0c-3,2 -7,5 -11,7l-2 2c-4,2 -8,5 -12,8l-2 2c-5,3 -9,7 -14,10l-1 1zm43 -31c8,-5 14,-8 20,-10l-1 0c-2,1 -5,2 -8,4l0 0c-3,2 -6,4 -10,6l-1 0zm20 -10c3,-1 5,-2 7,-2 0,0 0,0 0,0l-4 526 8 4813c25,-26 50,-53 74,-79 12,-12 24,-25 35,-37 14,-14 27,-27 41,-41 31,-32 74,-65 107,-96l0 -13 0 13c-16,15 -34,30 -51,45 -20,17 -40,34 -56,51 -14,14 -27,27 -41,41 -36,38 -73,77 -109,116l-8 -4813 4 -526 0 0c-2,0 -4,1 -7,2l0 0zm271 5036c1,-12 1,-23 2,-34 -1,11 -1,22 -2,34zm6 -110c22,-426 11,-859 0,-1291l-3 -122c3,123 6,246 9,369l0 9c1,33 2,66 2,98l0 2c1,45 2,89 2,134l1 5 0 31 0 4c0,22 1,44 1,66l0 1c0,33 0,67 0,100l0 3c0,33 0,66 0,99l0 7 0 28 0 3 0 32 0 3 0 31 0 2 -1 31 0 7 0 25 0 8 -1 26 0 10 -1 25 0 6 -1 30 0 5 -1 31 0 0 -1 34 0 1 -1 33 0 1 -1 31 0 6c-1,21 -2,42 -3,63l0 3 -1 10zm-3 -1424c-2,-89 -4,-177 -6,-265 2,88 4,176 6,265zm-6 -267c-2,-114 -3,-228 -3,-340 0,-295 2,-591 4,-886 -2,295 -4,591 -4,886l0 8 0 9c0,21 0,42 0,63l0 1c0,86 1,172 3,259zm1 -1235c2,-183 4,-366 6,-548 8,-705 15,-1410 7,-2115l-32 34c-164,171 -329,331 -494,491 -170,164 -340,328 -506,503 -103,110 -208,218 -314,327 -105,108 -212,216 -318,323 -107,107 -215,215 -323,321 -108,107 -218,212 -328,316 -17,15 -34,32 -52,49 -52,50 -111,107 -174,159 84,-70 161,-147 226,-208 221,-207 437,-422 651,-637 213,-214 425,-431 632,-650 327,-344 668,-646 1000,-994 10,-11 21,-22 32,-34 1,146 3,291 3,436l0 17c0,34 0,68 0,102l0 2c0,37 1,73 1,110 0,73 -1,145 -1,218l0 24 0 23 0 19c-1,164 -2,328 -3,492l0 6 -1 52 0 3c-3,387 -8,773 -12,1159zm-2528 -140c-31,26 -63,51 -96,74l5 -4 2 -1 6 -4 4 -3 6 -5 1 -1c25,-17 48,-36 72,-56zm-106 81c-10,7 -20,13 -30,19l2 -1 2 -1c9,-6 17,-11 26,-17zm-30 19l-9 6 1 -1 4 -2 4 -3zm-22 13l-7 5 3 -2 3 -2 1 -1zm-7 5l-2 1 -8 4 4 -2 2 -1m-6 3l-2 1 -1 1 -2 1m-7 3c-10,6 -20,11 -30,15l1 0 5 -2 5 -3 2 0c6,-3 12,-6 17,-10zm-39 20l-3 1 -2 1 -4 1 -1 1 -3 1 -7 3 2 -1 4 -1m11 -5l-7 3m-10 4l-3 1 -7 3 2 -1 4 -1m-8 3l-8 3 3 -2 3 -1 2 0zm-10 3c-10,4 -20,7 -30,9l0 0 2 0c5,-2 10,-3 15,-5l2 0c3,-1 5,-2 8,-3l1 0 2 -1zm-32 10c-3,1 -6,1 -9,2l1 0 5 -1 3 -1zm-10 2c-3,1 -6,2 -8,2l1 0 4 -1 3 -1zm-8 2l-3 1 -2 0 -3 1m-5 1l-7 1 2 0 3 -1 2 0zm-10 1c-3,1 -5,1 -8,1l3 0 4 -1 1 0zm-10 2c-3,0 -5,0 -8,0l3 0 4 0 1 0zm-10 1c-3,0 -7,0 -10,0 -16,1 -33,1 -49,0l1 0 4 0 6 1 3 0 6 0 3 0 7 0 2 0c6,0 11,0 17,-1 3,0 7,0 10,0zm-60 0c-2,0 -5,0 -8,0l1 0 2 0 5 0zm-17 -1l-3 -1m-7 -1l-3 0 -3 0 -1 -1 -2 0 6 1m-25 -4l-2 -1 -3 -1 -1 0m4 1l-7 -1 -2 -1 -3 0 -1 -1m-5 -1l-7 -2 3 1 1 0 3 1zm-18 -5l-7 -2 3 1 2 0 2 1zm-15 -5l-4 -1m-6 -2l-1 -1 -8 -2 5 1 0 0m-5 -1l-1 -1 -2 -1 -1 0m-24 -10c-5,-2 -11,-5 -16,-7 5,2 11,5 16,7zm-16 -8c-26,-12 -51,-26 -75,-42 24,16 49,30 75,42zm-75 -42c-8,-5 -16,-10 -24,-16 8,6 16,11 24,16zm-25 -16c-21,-15 -42,-30 -62,-46 20,16 41,31 62,46zm-62 -46c-5,-4 -10,-8 -15,-12 5,4 10,8 15,12zm-15 -13c-40,-32 -77,-66 -114,-98l-16 -14c-73,-66 -146,-134 -217,-202 -72,-68 -143,-138 -213,-207 -102,-100 -204,-201 -306,-303l-19 -19c-95,-96 -188,-192 -280,-290 -174,-185 -368,-340 -537,-536l-5 -5 -7 -8 -9 -10 -8 -10 -6 -8 -11 -13 -3 -4 -11 -14 -5 -6 -11 -13 -5 -7 -9 -12 -6 -8 -9 -12 -6 -8 -9 -13 -5 -6 -8 -11 -3 -4c42,59 87,116 136,172 96,111 200,210 304,308 79,74 158,148 233,228 92,98 185,194 280,290 108,109 217,216 325,322 141,139 283,277 430,409 42,37 85,76 130,112zm-1838 -1841c-27,-39 -53,-79 -77,-119l2 3c3,5 6,10 9,14l3 5c3,5 6,11 9,16l3 5 9 13 5 8 9 14 3 4 8 12 7 10 7 10 3 5zm-78 -120c-3,-7 -7,-13 -11,-19l2 2 8 14 1 3zm-11 -20c-27,-47 -52,-95 -74,-143l2 3 7 14 3 7 6 14 3 6 7 14 3 6 7 14 4 7c3,5 5,9 7,14l3 5c3,5 6,11 9,16l3 5 8 15 2 3zm-74 -144c-6,-14 -12,-28 -18,-42l2 3c2,6 4,11 6,17l2 4c3,5 5,11 7,16l1 2zm-18 -42c-6,-14 -11,-28 -16,-42l1 2c2,6 4,11 6,16l2 6c2,5 4,10 6,15l1 3zm-17 -43c-17,-47 -32,-94 -44,-142 -10,-39 -18,-79 -24,-119l0 2c1,6 2,12 3,18l0 3c1,6 3,13 4,19l0 3c2,7 3,13 4,19l1 4c1,6 3,13 4,19l1 4c1,6 3,12 4,18l1 4 2 6 3 12 1 4c1,6 3,11 4,17l2 5c2,6 3,11 5,16l1 5c2,6 4,11 5,17l2 4c1,6 3,11 5,17l2 5c2,5 4,11 6,17l1 4c2,6 4,11 6,17l1 2zm-69 -262c-1,-7 -2,-14 -3,-21l1 2c0,5 1,11 2,16l0 3zm-3 -23c-1,-7 -2,-14 -2,-21l0 3c1,5 1,10 2,16l0 2zm-3 -22c0,-7 -1,-14 -2,-21l0 3c1,5 2,11 2,16l0 2zm-2 -23c-1,-7 -1,-14 -2,-20l0 2c1,6 1,11 2,16l0 2zm-2 -23c-1,-7 -1,-14 -1,-21l0 3m0 -4c-1,-15 -2,-30 -2,-45l0 3c0,6 0,11 0,17l1 5c0,6 0,12 0,18l1 2zm-2 -46c0,-7 -1,-15 -1,-22l0 3c0,5 1,10 1,15l0 4zm-1 -24c0,-7 0,-14 1,-21l0 2c-1,5 -1,11 -1,17l0 2zm1 -22c0,-8 0,-15 0,-22l0 1c0,6 0,12 0,18l0 3zm0 -24c0,-7 1,-14 1,-21l0 2c0,6 -1,11 -1,17l0 2zm1 -23c1,-8 1,-15 2,-22l-1 2c0,6 0,12 -1,18l0 2zm2 -23c0,-8 1,-15 1,-23l0 3c0,6 -1,12 -1,18l0 2zm2 -24c0,-7 1,-15 2,-23l0 3c-1,6 -2,13 -2,19l0 1zm2 -23c1,-8 2,-15 3,-23l-1 4c-1,6 -1,11 -2,17l0 2zm3 -24c2,-16 4,-32 7,-47l-1 1c-1,7 -2,14 -3,20l0 4c-1,6 -2,12 -3,18l0 4zm7 -48c1,-8 3,-15 4,-23l0 1c-1,7 -3,13 -4,19l0 3zm4 -24c1,-7 3,-15 5,-23l-1 2c-1,6 -2,12 -3,18l-1 3zm5 -25c2,-7 3,-15 5,-22l-1 2c-1,6 -2,12 -4,18l0 2zm5 -23c2,-8 3,-15 5,-23l0 2c-2,6 -3,13 -5,19l0 2zm6 -25c2,-7 4,-15 5,-23l0 3c-2,6 -3,12 -5,18l0 2zm6 -24c2,-8 4,-16 6,-24l0 3c-2,7 -4,13 -6,20l0 1zm6 -24c5,-16 10,-32 15,-49 60,-187 156,-353 283,-490 99,-105 215,-194 348,-261l-3 2 -10 5 -5 3 -12 6 -4 2 -11 6 -5 3 -11 6 -4 3 -10 5 -6 4 -8 5 -8 5 -10 6 -3 2 -10 7 -6 4 -8 5 -7 4 -8 6 -6 4 -9 7 -5 4 -11 7 -3 2 -11 9 -3 2 -10 8 -4 3 -10 8 -3 2 -10 9 -5 4 -9 7 -4 4 -9 8 -4 3 -9 8 -4 4 -9 8 -3 4 -8 7 -6 5 -8 8 -3 4 -9 9 -4 4 -8 8 -4 4 -7 7 -1 1 -5 6 -7 8 -4 4 -6 7 -6 7 -5 5 -6 7 -6 8 -5 6 -7 9 -4 4 -5 7 -5 7 -8 10 -2 2 -8 11 -4 5 -6 9 -4 6 -5 6 -5 7 -5 8 -6 8 -6 9 -2 4c-2,3 -5,7 -7,11l-3 4 -7 11 -2 4 -6 10 -3 6 -6 9 -3 6 -6 10 -2 4c-2,4 -4,7 -6,10l-4 7 -4 9 -3 6 -6 10 -3 6 -4 9 -4 8 -4 8 -3 7 -5 11 -2 4 -6 12 -2 5 -5 12 -2 5 -5 11 -2 5 -5 13 -1 4 -5 11 -2 6 -5 14 -1 1 -4 13 -3 7 -3 10 -2 8 -4 10 -1 3 -1 2c-2,7 -4,14 -6,21l-1 5c-2,6 -4,13 -6,20l-1 1zm646 -800c38,-19 77,-37 117,-52 102,-40 210,-68 319,-82 22,-3 44,-5 65,-7l-7 0 -1 0 -5 1 0 0 -10 1 -6 1 -14 1 -5 1 -6 1 -3 0 -7 1 -8 1 0 0 -10 1 -1 0 -6 1 -6 1 -4 1 -7 1 -6 1 -3 0 -4 1 -6 1 -7 1 -3 1 -8 1 -3 1 -4 1 -6 1 -7 1 -5 2 -5 1 -3 0 -8 2 -1 0 -10 2 -1 1 -8 1 -2 1 -7 2 -8 2 -2 0 -4 1 -6 2 -4 1 -4 1 -6 2 -6 1 -4 1 -7 2c-5,2 -11,3 -16,5l-4 1 -5 2 -5 1 -3 1 -5 2 -8 2 -3 1c-16,5 -31,11 -47,17l-1 0c-8,3 -16,6 -23,9l-3 1 -14 5 -1 1c-5,2 -10,4 -15,6l-3 1 -12 6 -7 3 -9 4 -7 3 -10 4 -6 3 -11 6 -6 2 -9 5 -4 2zm512 -142c10,-1 21,-2 31,-2 -10,0 -21,1 -31,2zm42 -3c24,-1 48,-2 73,-2 19,0 37,0 56,1l0 0c18,1 35,2 52,3l3 0 6 1 4 0c8,1 16,1 25,2l1 0c12,1 24,3 36,4l1 0c12,2 24,4 36,5l1 0c12,2 24,4 35,6l3 0c11,2 23,4 34,7l3 0 12 3c7,1 13,2 20,4l2 0c-8,-1 -15,-3 -22,-4 -53,-11 -107,-19 -162,-25 -49,-5 -98,-7 -146,-7 -25,0 -49,1 -73,2zm404 35c12,2 23,5 35,8l-2 -1c-11,-2 -21,-5 -31,-7l-2 0zm35 8c23,6 46,12 69,19l-1 -1c-10,-3 -21,-6 -31,-9l-3 0c-11,-3 -22,-6 -33,-9l-1 0zm71 19c11,3 21,7 32,10l-2 0c-9,-3 -19,-6 -28,-9l-2 -1zm34 11c22,7 44,15 66,23l-1 0c-11,-4 -21,-8 -31,-12l-2 0c-10,-4 -20,-7 -30,-11l-2 0zm67 24c11,4 21,8 31,12l-1 -1c-10,-3 -19,-7 -28,-11l-2 0zm33 13c11,4 21,9 31,13l-2 -1c-9,-4 -18,-8 -28,-11l-1 -1zm32 13c10,5 21,10 31,15l-1 -1c-10,-4 -19,-9 -29,-13l-1 -1zm32 15c10,5 20,10 30,15l-2 -1c-9,-4 -17,-9 -26,-13l-2 -1zm31 16c10,5 20,10 30,15l-2 -1c-9,-5 -17,-9 -26,-14l-2 0zm31 15c10,6 19,11 29,17l0 -1c-10,-5 -19,-10 -28,-15l-1 -1zm30 17c9,6 19,11 28,17l-2 -1c-8,-5 -16,-10 -24,-15l-2 -1zm30 18c9,5 18,11 27,17l-2 -1c-7,-5 -15,-10 -23,-15l-2 -1zm29 18c18,12 37,24 55,37l-1 -1c-8,-5 -16,-11 -24,-16l-5 -3c-8,-6 -16,-11 -24,-16l-1 -1zm57 38c8,7 17,13 25,19l-1 -1c-8,-5 -15,-11 -23,-17l-1 -1zm26 20c27,20 53,41 77,63l-1 -1c-7,-6 -14,-12 -21,-18l-4 -3c-8,-7 -15,-13 -23,-20l-3 -2c-8,-6 -16,-12 -24,-18l-1 -1zm78 64c17,15 33,30 49,45l-1 -1c-8,-7 -15,-14 -22,-21l-3 -2c-7,-7 -14,-13 -21,-20l-2 -1zm49 46c8,7 15,15 23,23l-1 -1c-7,-7 -14,-14 -20,-20l-2 -2zm23 24c8,7 16,15 23,24l-2 -2c-6,-7 -13,-14 -19,-21l-2 -1zm23 24c15,16 29,33 43,50l-1 -2c-6,-7 -12,-14 -18,-21l-3 -3c-6,-8 -13,-15 -20,-23l-1 -1zm44 51c7,8 13,16 20,25l-2 -2c-5,-7 -11,-14 -17,-21l-1 -2zm20 26l3 3c12,16 25,33 36,50l-1 -2c-5,-8 -11,-16 -17,-24l-2 -3c-5,-7 -11,-14 -16,-21l-2 -2 -1 -1zm39 53c7,9 13,18 19,27l-2 -2c-5,-7 -10,-15 -15,-23l-2 -2zm19 28c6,9 12,18 18,28l-2 -2c-5,-8 -10,-16 -15,-24l-1 -2zm18 28c5,9 11,19 17,28l-1 -1c-5,-9 -10,-17 -15,-26l-1 -1zm17 29c5,9 10,18 15,28l-1 -2c-4,-8 -8,-16 -13,-24l-1 -2zm16 30c11,19 21,38 30,58l-1 -1c-4,-9 -8,-18 -13,-27l-2 -4c-4,-9 -8,-17 -13,-25l-1 -1zm30 59c5,9 9,19 13,29l0 -1c-4,-9 -8,-18 -12,-26l-1 -2zm14 31c5,10 9,20 13,30l-1 -3c-4,-8 -7,-17 -11,-25l-1 -2zm13 30c4,10 8,21 12,31l0 -1c-4,-10 -8,-19 -11,-28l-1 -2zm12 32c4,10 8,20 11,31l0 -2c-3,-9 -6,-18 -10,-27l-1 -2zm12 32c3,10 7,21 10,31l-1 -2c-3,-9 -5,-18 -8,-27l-1 -2zm10 32c7,21 13,43 19,65l-1 -2c-2,-10 -5,-20 -8,-29l0 -3c-3,-10 -6,-20 -9,-30l-1 -1zm19 67c3,10 5,20 7,31l0 -2c-2,-9 -4,-18 -6,-27l-1 -2zm8 33c2,11 5,21 7,32l-1 -3c-2,-9 -4,-18 -6,-28l0 -1zm7 33c2,11 4,22 6,34l0 -2c-2,-10 -4,-20 -6,-30l0 -2zm6 34c2,11 4,22 5,33l0 -2c-1,-9 -3,-19 -5,-28l0 -3zm6 36c1,11 2,22 4,32l-1 -2c-1,-9 -2,-19 -3,-28l0 -2zm4 34c1,11 2,23 3,34l0 -1c-1,-11 -2,-21 -3,-32l0 -1zm3 36c1,11 2,22 3,33l0 -2c-1,-9 -2,-19 -2,-29l-1 -2zm3 36c1,11 1,22 1,33l0 -2c0,-10 0,-20 -1,-30l0 -1zm1 35c1,12 1,23 1,35l0 -1c0,-11 0,-22 -1,-33l0 -1zm1 35c0,12 0,24 0,36l0 -2c0,-10 0,-21 0,-31l0 -3zm0 38c-1,12 -1,23 -2,35l1 -2c0,-10 0,-21 1,-31l0 -2zm-2 36c-1,23 -2,46 -5,69 -5,52 -13,104 -23,157 -17,81 -40,159 -70,233 -3,7 -5,13 -8,19 3,-6 5,-12 8,-19 3,-7 5,-15 8,-22l1 -2c2,-5 4,-11 6,-16l1 -3 2 -6 2 -5 2 -6 1 -2c2,-6 4,-12 6,-17l0 -2c2,-6 4,-11 6,-17l1 -3 2 -8 2 -5 2 -10 3 -9 2 -7 2 -6 1 -4 2 -8 3 -10 2 -10 2 -6 2 -9 2 -9 0 -3 2 -5 1 -7 1 -3 1 -6 1 -4 1 -3 0 -1c2,-12 5,-25 7,-37l0 -2c2,-12 4,-24 6,-36l0 -1c2,-13 4,-25 6,-37l0 -1c1,-12 3,-24 4,-36l0 -2 0 -4c1,-10 2,-21 3,-31l0 -3c1,-11 2,-22 2,-34l0 -1zm-110 487c-7,15 -14,31 -21,46 -3,6 -6,12 -9,18l-2 4c-2,4 -4,9 -7,13 -14,27 -28,53 -44,79 -5,7 -9,14 -14,21l0 1 -4 6 -2 3c-4,5 -7,10 -10,15l-1 1 -5 7 -1 1c-5,8 -11,16 -17,24l0 1c-10,13 -21,27 -31,40 -6,8 -13,16 -19,23l-1 2 -6 7 0 0 -4 4c-21,25 -44,49 -68,72 12,13 25,26 37,39l6 6c47,49 93,99 138,150 44,-54 85,-107 111,-140l3 -4 -3 4c-10,12 -22,28 -36,45 -22,29 -48,62 -75,95 -30,-33 -59,-66 -90,-99 -30,-32 -60,-64 -91,-96 12,-12 23,-23 35,-35 11,-12 23,-24 33,-37 43,-50 81,-102 115,-156 7,-12 15,-25 22,-37l2 -4 3 -6 1 -2 3 -6 3 -4c2,-4 5,-9 7,-14l2 -3 1 -3c3,-6 6,-12 9,-17l2 -4 1 -2c3,-5 5,-11 8,-16l1 -2c6,-13 12,-26 18,-40zm178 209l4 -9 -2 4 -2 5zm140 -449l2 -15 0 -4 1 -6 -2 17 -1 8zm2 -19l2 -13 -1 7m6 -45l1 -13 -1 6 0 7zm1 -17l2 -15 -1 8 -1 7zm3 -33c1,-12 2,-23 3,-35l-1 9 0 0 -1 17 -1 9zm4 -54c1,-17 2,-33 2,-50l0 7 -1 18 -1 18 0 7zm3 -88l0 -17 0 8 0 1 0 8zm1 -40c0,-10 0,-19 -1,-29 1,10 1,19 1,29zm-1 -55l0 -4c0,-11 -1,-22 -1,-34 0,11 1,23 1,34l0 4zm-2 -46c0,-6 -1,-12 -1,-18 0,6 1,12 1,18zm-3 -38c-1,-6 -1,-12 -2,-18 1,6 1,12 2,18zm-2 -20c-2,-15 -5,-30 -7,-44 2,14 5,29 7,44zm-7 -45c-14,-82 -36,-162 -59,-242 9,31 18,61 26,91l0 2c8,29 15,59 21,89l1 1c4,20 8,39 11,59zm-59 -242l-7 -25 -10 -34 17 59zm-3667 4711l-6 -6c-3,7 -7,15 -10,22l0 1 -2 4 0 1m-170 432l-2 6m3681 -1939l-2 1m-211 36l-1 0m-8 -1l-2 -1m-26 -4l-2 0m-51 -14l-2 -1m-2355 -2706l0 -1m2502 -1159c-6,-7 -12,-14 -19,-21l0 0m-2563 1820c2,6 5,11 7,16m3614 4703l0 2m-2989 1950l-2 -1m-1022 -792l-1 -2m-15 -23l-2 -2m-62 -102l-1 -1c-4,-7 -8,-14 -12,-21l-4 -7c-4,-7 -8,-14 -11,-21l-2 -4m-2149 -6316l-1 23 1 -23c89,91 179,182 269,272 91,90 182,180 273,270 168,165 346,337 527,511 399,385 812,783 1166,1163 -514,-552 -1155,-1144 -1693,-1674 -182,-179 -364,-359 -542,-542zm-1 66c-1,42 -2,84 -2,126 0,-42 1,-84 2,-126zm-4 271c-1,47 -1,94 -2,142 1,-48 1,-95 2,-142zm-3 336l0 32 0 0c-1,175 -2,351 -2,526l0 5c1,87 1,175 1,262l0 1c1,86 1,172 2,258l0 12c1,145 2,290 3,435l0 0c5,499 12,997 18,1495 -3,-207 -5,-415 -8,-622 -10,-802 -19,-1603 -14,-2404zm22 3051c2,166 3,333 5,499 -2,-166 -3,-333 -5,-499zm5 517c0,56 1,112 1,169 0,-57 -1,-113 -1,-169zm2 434c1,69 1,138 1,207l0 3c0,59 0,118 0,176l0 26 0 71 0 9 0 69 0 14 0 69 -1 47c0,48 0,96 -1,144l0 17 0 65 0 20 -1 32c0,12 0,24 0,36 0,-12 0,-24 0,-36 3,-322 4,-645 2,-969zm-3 1019c-1,21 -2,41 -2,62 18,18 37,35 52,50l22 21 1 1 10 9 2 3c49,47 99,95 148,143l0 -4770 17 -623 0 0c0,0 0,1 1,1l0 0c0,0 1,1 2,1l0 0c-2,-1 -3,-2 -3,-2 0,0 0,0 0,0l-17 623 0 4770c-41,-40 -83,-80 -124,-120l-59 -57c-5,-5 -11,-11 -17,-17 -12,-10 -24,-22 -35,-33 0,-18 1,-37 2,-55l0 -7zm253 -5101l1 0 1 1 1 1 -3 -2zm3 2l1 1 2 2m13 12c7,6 15,13 23,21 -8,-8 -16,-15 -23,-21zm34 31c13,13 28,28 45,44 -17,-16 -32,-31 -45,-44zm46 45c12,12 25,25 39,39 -14,-14 -27,-27 -39,-39zm41 41c228,227 658,665 754,770 157,170 293,309 462,468 184,174 364,352 544,530 262,260 519,526 783,785 170,166 325,348 499,510 369,343 723,704 1077,1062 92,93 172,181 240,271l3 3c17,23 33,45 48,68l2 3c8,13 17,26 25,39l0 1 5 7 0 1 4 7 1 2c5,7 9,15 13,22l2 3c3,7 7,14 11,21l2 4c2,5 5,9 7,14l2 4 2 3 3 7 2 4c3,6 5,12 8,17l3 7 2 4 1 2c4,-33 6,-66 6,-100 0,-5 -1,-10 -1,-15l0 -1c0,-10 0,-20 -1,-30l0 -1 0 -7 0 0 -1 -8 0 0 0 -8 0 0c-1,-5 -1,-10 -2,-14l0 -2c-1,-11 -2,-23 -4,-34 10,74 11,148 3,220 -41,-92 -94,-178 -159,-261 -65,-84 -141,-166 -227,-253l-109 -110c-318,-322 -637,-645 -968,-952 -98,-91 -190,-189 -282,-286 -71,-76 -143,-152 -217,-224 -152,-150 -303,-302 -453,-454 -110,-110 -220,-221 -330,-331 -90,-89 -180,-178 -271,-267 -90,-88 -181,-176 -273,-263 -85,-79 -161,-154 -235,-230 -75,-76 -148,-153 -227,-238 -72,-79 -332,-345 -553,-569 -74,-74 -144,-144 -201,-201zm4502 4418c-1,-12 -3,-25 -6,-37 1,5 2,10 3,15 1,7 2,15 3,22zm-12 -71c-1,-7 -3,-14 -5,-21 2,7 4,14 5,21zm-9 -39c-2,-10 -5,-20 -8,-30 3,10 6,20 8,30zm-8 -32c-9,-31 -20,-63 -32,-94l0 0c-5,-13 -10,-26 -15,-39 -28,-46 -80,-104 -117,-146l8 9c36,41 83,94 109,137 18,44 34,89 47,133zm-165 -281l-7 -7c-94,-109 -193,-214 -292,-318 -271,-284 -550,-562 -830,-837 -265,-262 -532,-522 -798,-783 -180,-177 -367,-356 -539,-542l-12 -13 12 14c142,152 295,301 445,448 31,31 63,62 94,93 100,98 200,196 300,293 166,163 332,326 498,490 140,138 280,276 418,415 139,139 276,280 412,422 49,52 99,104 148,157 49,53 97,107 144,161l7 7zm369 -2033l2 1m51 13l2 0m26 5l1 0m8 1l1 0m212 -37l2 -1m-5119 -2076c3,2 6,5 9,8l2 1 5 5 0 1"/>
  </g>
 </g>
</svg>
